<?xml version="1.0" encoding="UTF-8"?>
<svg viewBox="0 0 820 1000" class="karte" role="img" aria-label="Einsatz- und Zielländer in Europa" xmlns="http://www.w3.org/2000/svg"><defs><linearGradient id="grad-aktiv" x1="0" y1="0" x2="1" y2="1"><stop offset="0%" stop-color="rgba(45,212,191,0.55)"/><stop offset="100%" stop-color="rgba(56,189,248,0.55)"/></linearGradient><linearGradient id="grad-hover" x1="0" y1="0" x2="1" y2="1"><stop offset="0%" stop-color="rgba(45,212,191,0.78)"/><stop offset="100%" stop-color="rgba(56,189,248,0.78)"/></linearGradient><linearGradient id="grad-geplant" x1="0" y1="0" x2="1" y2="1"><stop offset="0%" stop-color="rgba(45,212,191,0.26)"/><stop offset="100%" stop-color="rgba(56,189,248,0.26)"/></linearGradient></defs><g class="k-kulisse"><path d="M167.4 695.8L163.3 697.2L166.2 695.3Z"/><path d="M122.8 569.8L119.0 573.2L117.4 568.7L121.0 564.6L124.2 567.5Z"/><path d="M155.3 636.7L149.5 638.8L144.3 642.4L138.6 642.0L134.9 638.8L131.5 637.3L126.1 638.1L128.8 635.8L124.3 634.7L120.5 633.5L117.1 635.2L113.6 636.6L109.5 634.6L108.1 630.6L110.2 627.2L114.1 626.0L120.0 623.2L123.3 622.0L126.4 620.0L128.6 617.0L130.8 613.2L129.1 610.1L128.3 605.9L126.2 603.5L121.7 604.8L117.7 606.3L120.7 602.3L123.7 599.8L128.4 595.5L134.0 593.3L139.2 593.1L143.0 592.1L147.3 594.4L146.0 590.9L150.6 593.2L147.9 587.7L149.2 583.8L148.2 578.9L151.0 575.8L152.0 571.1L148.1 570.6L143.1 568.6L138.5 562.2L140.4 553.9L144.1 550.2L148.4 548.9L141.0 548.6L136.8 550.6L133.4 551.9L129.0 553.5L125.7 551.8L122.8 553.5L118.4 553.4L115.2 551.9L113.5 556.1L111.2 554.2L109.3 551.5L108.6 548.0L112.5 543.5L115.8 537.7L117.8 533.8L113.8 528.3L114.2 523.4L119.6 521.6L114.7 518.4L110.1 520.2L107.8 523.0L107.7 518.0L111.9 513.2L106.6 517.3L104.2 520.0L104.9 524.7L101.4 536.9L98.2 538.4L99.1 530.4L102.4 525.4L100.5 518.3L101.8 512.8L103.7 507.9L105.7 504.1L107.3 500.3L101.3 503.8L97.4 504.5L94.4 502.6L92.1 500.2L95.5 497.7L98.2 495.5L100.8 488.3L101.3 484.6L99.6 481.6L96.6 478.6L99.0 476.1L98.0 472.5L98.9 468.6L100.5 465.5L105.3 465.6L104.5 460.7L105.4 456.7L110.7 454.5L110.1 450.5L110.6 446.4L113.2 444.4L117.1 446.7L120.5 445.2L126.9 445.3L133.1 444.7L136.8 443.8L140.6 443.5L144.3 442.5L148.1 443.0L147.0 446.6L146.5 450.7L141.4 454.9L134.6 460.4L130.6 463.2L132.2 466.8L129.0 471.6L130.7 474.4L137.4 472.0L141.6 470.6L147.5 471.7L151.8 471.1L163.2 471.4L168.4 471.6L171.9 476.9L168.9 481.1L167.3 483.8L166.1 488.3L162.9 495.3L159.8 499.1L156.7 503.9L153.3 506.2L148.2 507.1L145.1 509.0L151.2 508.6L155.6 510.8L153.4 514.1L145.8 517.6L142.3 519.1L136.1 518.1L148.2 521.2L152.1 519.1L156.6 519.1L165.0 522.6L167.4 525.2L170.9 529.0L174.1 531.9L176.6 540.5L178.5 546.9L180.9 553.8L183.5 557.1L190.8 560.2L195.3 564.1L198.1 567.3L200.7 569.7L203.4 571.6L201.2 574.2L203.0 578.4L205.2 581.6L207.1 585.2L203.6 584.3L200.0 581.8L194.4 582.1L199.5 583.0L207.4 588.9L210.1 592.4L211.6 597.0L208.9 600.4L205.9 603.7L210.2 606.2L214.6 602.8L218.1 601.8L222.7 602.5L228.7 603.2L235.9 607.7L237.5 612.2L236.7 617.6L235.1 623.0L231.3 627.2L227.9 628.4L227.1 632.1L222.8 632.0L219.0 634.0L222.3 636.1L219.9 638.9L216.1 639.3L212.9 640.7L217.0 642.2L221.6 643.4L228.4 643.0L231.4 644.6L230.4 648.5L224.5 651.2L222.9 654.2L217.8 655.3L212.7 656.9L208.8 658.3L201.2 657.0L196.6 657.1L190.4 658.2L186.4 657.0L181.1 656.0L176.7 658.7L170.2 659.5L167.8 662.2L161.2 661.4L157.5 662.0L153.2 659.7L149.1 659.5L141.6 661.6L139.3 666.6L136.4 671.3L132.3 670.1L128.5 668.6L123.4 668.3L116.9 670.0L111.6 673.2L109.6 676.2L105.8 675.1L101.5 675.1L105.4 671.1L109.2 668.0L111.7 665.0L114.4 662.8L119.6 658.0L120.7 653.0L124.9 651.7L126.9 647.7L133.4 646.6L137.8 646.7L142.1 647.5L146.6 647.3L151.3 642.2L154.9 638.9L159.7 633.7L155.3 636.7ZM126.8 592.8L125.3 596.7L120.1 594.4L121.8 590.2L126.8 592.8ZM157.5 424.8L160.1 422.7L157.5 424.8ZM185.6 384.5L183.3 381.6L184.6 377.9L185.7 382.0ZM180.6 383.8L183.4 387.6L183.9 394.3L182.6 400.6L181.1 404.4L180.8 399.6L180.3 394.9L177.1 393.8L174.1 392.5L179.4 390.3L178.0 386.0L178.6 381.8ZM190.6 374.9L189.6 379.1L187.7 375.4ZM146.0 438.1L142.2 436.7L146.1 437.9ZM150.4 439.7L148.4 437.3L150.4 439.7ZM148.0 431.0L151.2 432.3L146.0 434.3L142.9 432.7L143.3 427.9L148.1 428.8ZM154.1 426.1L151.7 424.3L148.8 422.9L152.5 424.5ZM81.9 503.2L83.8 500.7L81.9 503.2ZM109.9 535.2L105.6 534.4L104.5 530.5L107.1 527.8L109.9 531.8ZM97.3 510.1L89.9 511.7L90.6 505.9L87.4 504.2L89.8 501.6L94.2 504.7L97.6 505.9L97.3 510.1ZM90.8 521.8L91.5 525.4L88.5 530.8L87.6 527.5L84.0 528.3L84.9 524.5L89.2 522.5ZM93.7 525.0L92.4 521.9L94.3 518.6L96.9 516.8L93.7 525.0ZM89.5 451.1L87.1 456.4L82.8 459.2L85.7 460.8L82.4 463.7L78.3 467.1L75.3 469.4L73.0 467.5L75.6 465.2L73.5 461.9L72.8 457.9L74.3 455.2L78.0 456.2L79.3 452.4L83.0 450.6L87.6 447.4L89.5 451.1ZM88.0 492.3L85.1 490.8L88.0 492.3ZM90.5 476.6L90.6 481.0L95.4 483.7L99.4 484.7L97.0 487.1L94.8 489.5L92.5 485.5L88.2 486.0L84.9 481.8L80.6 480.8L79.2 478.0L82.3 476.5L86.1 473.7L90.1 474.2ZM70.7 471.4L71.1 475.8L65.0 473.8L68.5 472.0ZM69.9 488.0L66.8 485.7L66.9 480.2L69.9 487.6ZM89.1 572.4L85.0 573.1L80.8 572.5L78.9 569.5L77.0 566.9L74.4 563.8L70.8 566.6L68.8 570.6L64.4 571.2L58.6 569.0L53.7 563.6L59.8 559.3L58.0 556.8L61.7 555.1L65.2 552.4L67.1 547.5L70.5 545.1L75.5 542.6L80.2 542.3L84.3 541.0L88.8 541.7L92.5 543.7L95.6 549.9L98.5 552.6L95.4 556.3L101.0 556.8L102.7 559.8L99.8 561.9L101.4 564.8L98.6 568.2L95.5 570.6L92.8 573.4L89.1 572.4ZM185.1 660.1L182.7 662.4L176.8 660.6L180.5 658.0L185.1 660.1Z"/><path d="M917.2 746.4L910.0 746.3L904.7 746.7L900.9 750.4L895.4 751.3L890.7 755.0L886.3 753.9L881.1 756.3L876.4 756.1L872.7 757.1L864.7 762.7L862.1 766.7L858.3 769.0L861.3 766.1L862.7 762.9L858.5 765.3L854.5 767.0L854.6 771.6L857.3 777.4L853.5 776.1L851.4 771.9L847.0 772.1L842.8 769.1L835.0 766.6L832.2 768.0L829.3 769.6L824.9 768.5L818.9 768.5L810.2 769.4L802.0 765.4L798.2 764.9L801.2 763.1L798.7 760.8L794.3 759.7L799.1 759.5L803.8 759.7L808.1 760.5L811.7 757.9L808.0 758.5L803.7 757.7L800.9 755.2L800.2 748.9L798.3 744.8L799.7 750.2L799.5 754.9L797.3 756.9L792.6 756.2L788.7 757.4L778.9 758.8L777.5 763.0L773.6 769.0L768.2 774.4L764.2 775.9L760.8 777.4L756.7 778.5L757.9 781.7L759.0 786.1L753.0 784.4L746.0 786.7L741.4 786.9L735.2 787.3L730.8 783.7L735.6 782.5L737.3 777.3L740.4 774.7L742.6 771.8L744.9 768.5L744.2 763.1L746.4 760.0L749.3 762.7L752.8 761.4L756.9 762.3L761.1 763.4L765.5 762.8L762.7 759.1L763.0 754.8L758.9 751.2L756.1 749.3L755.0 745.5L753.9 741.7L751.7 739.8L748.4 737.9L748.9 733.2L749.1 727.9L746.1 726.3L743.0 725.3L741.2 722.3L736.7 721.6L733.3 720.1L728.5 719.1L724.8 716.5L721.5 714.5L716.7 714.7L712.4 716.4L706.3 716.4L701.5 718.2L697.8 719.7L694.7 722.5L692.6 725.3L687.8 725.9L683.8 726.8L679.6 727.3L674.1 729.3L670.5 731.6L664.4 728.1L661.3 726.4L657.5 727.3L653.4 726.5L646.8 725.6L641.2 725.4L637.4 723.2L634.7 725.0L631.3 726.4L629.6 722.9L625.9 722.0L622.9 719.4L620.5 717.4L617.5 715.6L620.5 708.9L622.3 704.4L624.0 701.8L628.1 700.4L628.5 695.6L627.3 689.7L631.6 682.9L634.3 679.6L638.6 675.4L641.3 672.9L645.7 669.1L651.8 667.1L653.9 664.1L653.1 659.3L654.1 655.6L651.1 652.6L649.7 649.2L646.9 645.7L645.9 641.1L645.0 637.0L649.7 636.7L654.6 635.6L657.5 632.8L661.5 630.1L668.4 629.7L672.2 628.9L681.7 629.0L688.2 629.3L694.5 630.8L698.0 631.9L704.0 632.9L709.6 633.2L713.2 636.9L719.4 637.2L720.8 640.1L723.6 637.9L728.3 638.2L732.3 637.7L736.7 638.2L738.9 640.9L742.6 638.8L745.7 637.3L749.7 639.9L751.9 642.8L755.8 641.5L762.4 640.9L767.1 640.4L769.8 642.4L772.5 645.5L775.9 643.5L774.5 639.0L775.0 635.0L776.5 631.8L779.9 628.3L782.4 625.9L786.8 625.8L793.4 624.3L799.0 625.3L803.6 625.8L806.6 624.2L808.1 620.1L813.4 619.9L818.1 620.5L822.8 618.4L828.4 618.5L833.7 618.2L837.2 620.6L840.7 627.6L846.1 632.7L843.1 634.9L842.4 638.5L842.9 643.3L847.8 646.4L851.9 648.1L857.1 647.3L859.4 649.4L862.3 651.2L863.7 654.8L865.1 658.2L864.6 662.1L866.4 665.8L869.8 668.6L873.9 666.4L878.1 667.1L880.4 669.5L885.2 670.3L888.9 671.1L894.3 668.8L899.3 667.4L903.9 668.8L905.8 671.9L907.7 674.5L912.3 678.0L915.9 678.6L918.0 675.9L921.6 678.0L927.7 680.0L932.3 681.6L936.4 682.5L940.4 683.8L943.5 685.7L946.4 687.6L950.0 698.3L946.0 700.5L947.9 704.3L945.9 706.6L944.3 709.5L947.4 712.3L948.4 716.7L949.7 719.6L947.0 724.3L945.5 728.8L939.1 729.1L934.8 729.0L930.0 728.6L926.6 731.9L922.7 734.0L918.5 735.5L917.7 739.8L916.9 744.4ZM801.6 766.7L795.8 766.5L792.6 764.4L801.6 766.7Z"/><path d="M689.0 897.9L684.7 898.5L687.2 895.9ZM944.6 966.2L938.5 967.3L933.8 967.4L927.5 967.1L924.0 965.2L920.3 963.4L911.4 965.1L908.0 966.1L904.3 967.4L900.6 968.0L895.8 967.9L893.5 965.8L888.2 965.0L886.1 970.8L887.9 975.5L883.8 976.7L882.4 980.6L878.8 983.9L875.3 982.4L873.8 977.6L872.4 974.6L876.5 970.5L879.4 967.8L878.4 964.0L874.1 964.1L871.0 965.7L868.9 967.9L864.6 969.4L860.6 968.3L856.2 966.5L851.7 964.7L844.2 968.9L839.1 974.0L832.9 977.1L828.2 977.7L821.9 978.7L816.2 980.0L811.3 978.7L808.4 977.1L803.8 971.9L797.2 968.7L789.3 965.0L781.8 964.0L776.1 963.7L774.5 970.4L773.1 974.6L768.4 974.7L760.2 977.4L751.9 975.6L748.1 972.9L746.7 969.1L744.9 966.7L740.2 967.0L735.8 964.9L730.5 967.2L727.2 968.3L723.2 966.3L718.3 967.3L725.6 964.8L728.4 962.6L731.3 960.5L720.6 960.9L714.7 960.7L718.2 957.8L715.6 955.0L712.3 953.4L710.9 949.1L712.9 943.6L707.1 940.0L702.3 937.3L697.5 936.9L695.9 933.8L696.5 929.9L700.9 931.5L702.1 934.5L705.6 933.7L710.0 932.9L706.4 931.6L704.4 928.6L706.5 925.6L704.7 921.9L703.0 915.8L704.7 912.6L706.3 909.9L698.6 910.5L691.7 911.6L692.4 907.7L692.3 903.3L695.4 900.2L698.4 896.6L703.3 892.4L708.4 892.5L713.5 891.3L717.0 894.1L721.7 893.9L722.5 890.2L726.6 890.6L732.2 892.4L738.6 892.9L745.6 892.7L742.5 890.3L744.7 887.7L754.9 886.1L761.2 885.4L752.3 884.0L747.6 881.3L746.7 877.9L751.5 875.2L762.6 876.8L770.5 875.9L779.2 878.2L787.5 877.7L791.3 873.3L803.0 867.6L807.1 864.7L811.5 863.1L819.0 861.3L825.3 858.9L842.2 859.7L852.6 859.9L857.4 857.6L859.4 859.9L861.2 863.3L867.7 866.7L874.4 865.0L879.2 871.1L883.5 874.2L886.9 873.2L890.4 872.4L894.4 874.2L902.6 877.6L908.8 878.3L911.5 879.9L920.3 881.6L929.1 879.6L939.8 877.8L946.9 880.3ZM727.1 859.6L727.8 864.7L730.5 868.4L733.3 870.2L744.5 874.8L745.4 878.7L741.4 880.5L732.3 878.5L725.4 880.2L717.5 880.5L713.0 886.5L707.7 889.1L703.9 890.4L698.3 895.3L695.7 898.2L694.3 894.2L697.9 891.5L703.0 889.5L700.3 887.8L696.3 888.2L691.5 888.1L692.9 883.6L695.7 880.9L695.7 875.0L699.5 872.8L700.9 869.3L698.8 866.7L695.5 865.0L699.1 862.6L701.0 859.7L706.0 859.1L711.8 857.3L714.9 858.4L718.1 860.6L722.0 859.8L727.1 859.6Z"/><path d="M419.4 1034.6L418.7 1038.6L418.5 1044.7L420.0 1047.8L416.7 1050.2L413.1 1051.9L410.1 1053.5L406.8 1055.2L404.1 1057.1L401.5 1060.3L397.1 1062.1L395.0 1064.3L394.6 1070.5L395.9 1074.5L395.4 1079.1L392.5 1082.8L390.1 1085.7L384.6 1088.3L381.3 1084.9L380.3 1081.2L378.1 1072.8L376.9 1068.3L375.7 1063.7L374.6 1059.5L373.5 1055.3L369.8 1052.7L366.8 1050.9L363.7 1048.8L360.3 1046.5L358.0 1039.4L356.2 1037.0L351.8 1034.8L349.1 1032.9L347.1 1027.7L345.4 1024.5L344.7 1019.6L349.4 1014.3L351.1 1011.3L354.9 1009.3L357.7 1006.8L358.8 1003.3L359.9 998.4L360.8 994.2L360.2 988.8L358.7 984.5L359.3 979.7L360.6 973.5L358.0 971.0L361.0 968.3L363.5 965.3L364.8 962.3L369.4 961.1L373.8 958.0L385.5 954.3L387.3 956.9L391.1 956.0L395.0 957.0L397.6 963.7L401.0 965.2L405.6 962.4L409.1 959.9L412.4 963.5L409.4 966.1L406.2 971.0L403.3 972.5L400.5 975.7L400.8 980.0L402.4 982.9L406.0 985.1L410.1 987.8L410.8 993.5L409.2 999.4L407.5 1002.2L404.2 1006.2L401.3 1008.7L395.1 1012.5L392.6 1015.1L394.3 1022.0L397.1 1024.3L404.7 1025.0L406.8 1028.2L409.2 1026.2L412.8 1031.0L416.3 1034.1ZM415.2 1004.7L412.3 1006.1L414.8 1003.5ZM409.2 1024.4L404.8 1024.1L408.5 1021.1L410.7 1023.2Z"/><path d="M873.9 982.3L878.3 983.9L880.5 981.2L882.9 977.3L886.4 976.3L885.9 971.7L887.0 966.9L890.4 965.2L894.3 966.9L898.0 967.8L902.7 968.1L908.0 966.1L911.4 965.1L916.8 963.0L921.5 963.8L926.0 966.7L930.1 967.1L938.5 967.3L944.6 966.2L947.7 1020.8L942.3 1023.5L936.8 1026.3L932.9 1028.3L927.6 1031.0L922.8 1033.5L917.9 1036.1L914.2 1038.1L908.6 1041.2L905.3 1043.0L900.5 1045.7L896.2 1048.0L891.2 1050.8L884.8 1049.9L881.2 1048.1L877.0 1046.7L875.1 1044.2L871.9 1043.0L873.8 1039.0L872.6 1036.0L872.0 1031.7L874.3 1029.2L876.6 1027.0L877.6 1022.3L882.4 1022.4L883.8 1018.2L886.8 1014.9L885.3 1010.9L882.1 1009.6L878.7 1007.1L874.0 1002.8L874.8 995.7L874.1 991.9L871.5 989.0L872.9 983.6Z"/><path d="M382.5 736.3L384.1 739.4L382.6 742.2L381.7 746.2L386.6 747.6L389.1 749.9L393.9 751.9L397.9 748.8L399.8 751.6L398.8 756.2L396.4 758.5L393.0 757.7L392.2 761.2L393.8 764.8L390.2 763.1L384.6 764.6L380.9 761.5L377.6 760.5L377.4 764.8L374.1 769.0L373.1 773.0L368.6 771.4L366.0 768.8L362.6 765.8L362.2 761.5L358.4 763.6L355.6 765.5L354.4 770.2L351.3 772.5L346.5 772.0L341.6 773.3L337.9 774.1L334.6 771.0L331.8 768.4L331.4 764.2L327.6 761.4L322.8 762.4L320.5 767.0L316.9 768.1L318.6 765.0L318.1 760.9L319.8 757.4L324.5 754.1L325.0 750.2L328.5 748.4L332.1 744.7L334.6 742.3L334.9 738.0L338.6 737.5L343.3 737.9L346.9 734.7L352.7 735.4L357.8 734.4L361.8 734.8L364.7 733.3L362.2 731.5L365.6 730.7L368.9 731.8L375.1 732.9L379.2 734.6L382.5 736.3Z"/><path d="M560.5 466.9L558.1 469.6L555.2 477.2L557.4 479.7L554.3 481.9L550.5 485.6L547.7 488.8L545.1 493.3L545.8 488.9L543.5 485.2L542.9 478.2L544.3 473.5L548.0 469.2L550.5 467.0L553.9 466.0L557.2 464.5L560.5 466.9ZM513.0 511.6L510.5 506.1L514.9 494.9L519.3 488.7L521.1 484.0L523.5 481.7L522.8 485.3L519.7 491.7L518.8 495.9L513.0 511.6ZM417.2 430.7L418.8 434.6L423.3 431.3L424.0 427.0L424.9 423.0L423.9 418.6L422.8 414.7L425.5 410.3L427.4 405.1L431.8 403.6L436.1 399.6L438.2 393.3L438.9 389.6L439.0 383.5L436.9 378.9L434.5 372.3L435.2 368.1L441.4 367.3L443.1 363.2L444.7 359.4L442.8 354.3L439.7 351.1L434.1 347.4L431.5 345.2L433.0 336.6L434.1 330.2L434.3 326.2L430.8 315.8L431.2 311.4L430.7 304.5L432.7 301.7L431.3 298.9L428.6 291.6L432.6 284.5L431.9 280.9L434.3 278.2L438.6 272.1L441.0 268.6L443.4 266.4L447.0 264.6L451.1 263.7L459.8 265.0L465.2 265.9L467.1 263.0L468.5 260.2L468.1 252.4L463.6 247.8L459.4 245.3L464.5 237.4L468.1 231.9L472.5 223.5L473.9 220.0L476.1 205.5L477.0 201.8L477.7 197.9L476.0 186.9L483.0 185.9L487.4 184.5L491.5 182.1L492.4 172.7L494.9 170.3L501.0 161.7L507.6 153.3L510.7 150.2L511.3 146.1L509.9 142.2L505.6 135.1L506.8 131.8L511.7 129.9L513.9 127.1L517.8 115.6L525.0 110.0L527.9 106.9L532.3 109.2L538.9 112.7L541.8 107.5L543.7 102.8L543.4 97.8L543.2 91.4L546.1 87.6L554.8 90.0L560.1 90.3L563.9 91.5L572.0 94.6L575.3 95.9L578.8 94.7L582.2 91.0L577.1 88.2L580.5 85.4L582.2 82.5L583.7 79.0L584.2 74.9L583.0 71.2L579.9 67.4L586.9 66.8L594.4 69.2L599.8 75.8L604.2 80.3L607.8 83.5L612.2 86.8L615.0 89.1L618.6 90.9L629.6 94.7L633.2 97.8L635.5 100.4L637.0 105.5L640.3 107.5L642.5 110.5L645.5 113.2L643.0 116.5L643.0 123.9L643.6 128.3L642.3 131.3L646.0 134.5L648.1 139.1L645.9 141.5L645.6 147.2L647.8 152.3L649.8 155.1L651.8 158.9L650.3 164.1L649.8 169.3L648.0 172.1L646.2 177.0L646.7 182.1L650.5 186.1L652.2 189.6L655.2 199.4L650.2 200.3L646.5 198.5L641.4 199.4L637.8 200.1L632.1 200.1L628.9 196.9L626.6 199.4L623.7 197.6L621.3 199.9L620.0 206.4L616.8 207.9L613.5 209.8L612.8 213.9L609.0 214.7L606.1 216.4L607.7 220.1L604.7 217.8L606.5 222.1L604.3 229.4L601.8 232.1L600.0 234.4L601.6 240.1L602.5 243.6L603.7 246.7L606.0 249.7L601.1 255.6L596.7 260.0L591.9 271.2L586.2 274.5L581.5 278.5L576.1 280.3L573.7 282.9L571.3 285.7L568.5 283.9L564.5 286.8L559.7 293.5L555.7 292.8L552.9 295.6L550.3 299.5L546.9 300.6L549.8 302.1L545.1 307.0L541.8 309.0L538.7 305.7L540.0 311.4L541.1 315.5L537.4 318.8L533.9 320.6L529.5 318.7L529.8 324.6L531.8 327.0L530.1 335.1L528.8 340.3L529.6 344.5L525.5 345.0L524.3 350.0L524.9 353.9L525.5 358.7L525.3 364.1L525.8 369.3L527.0 374.9L528.5 380.5L532.9 380.9L534.1 383.8L538.1 382.4L540.7 384.6L543.5 387.9L547.9 390.2L550.8 392.8L551.7 397.1L555.1 398.3L556.9 401.5L558.9 406.2L557.1 409.2L553.8 411.6L551.2 414.4L548.0 416.8L544.5 418.9L539.8 420.8L542.9 422.1L546.7 420.3L549.9 419.3L552.0 421.8L548.2 422.9L546.5 427.8L542.3 430.0L537.3 433.2L530.3 436.2L528.3 438.5L523.7 440.7L515.1 442.5L509.1 442.1L512.1 443.6L515.9 444.0L520.4 447.3L515.3 449.0L516.5 453.0L516.2 457.2L516.1 464.4L513.5 467.6L514.1 472.6L515.3 476.7L512.1 483.6L513.0 489.3L511.7 493.4L510.8 496.8L507.2 503.1L503.1 513.6L500.0 516.3L496.2 514.6L490.6 515.6L485.5 515.0L480.5 515.3L478.1 519.3L473.4 520.5L470.8 523.0L469.7 527.4L472.3 533.1L469.1 536.7L462.3 535.8L453.3 538.1L445.1 536.3L446.1 532.9L446.9 528.4L444.2 523.2L439.7 516.0L438.3 512.9L442.7 513.0L441.5 509.0L444.6 507.0L445.1 502.3L442.0 501.0L439.3 496.4L436.5 494.0L431.5 484.7L429.6 478.3L427.1 476.1L426.4 471.5L423.6 469.0L423.1 462.8L418.4 458.5L418.0 451.8L414.6 451.0L414.2 441.6L413.9 435.9L412.7 432.2L415.5 429.2ZM562.0 464.3L565.3 463.1L562.0 464.3Z"/><path d="M234.7 927.7L231.1 926.9L234.7 927.7ZM263.6 905.0L268.3 905.3L267.4 909.8L265.5 913.2L262.3 915.0L259.0 913.6L256.2 910.7L251.6 911.4L249.2 909.5L256.9 903.7L263.9 901.3ZM285.0 903.9L278.9 901.8L276.8 899.4L283.8 900.0L285.5 902.8ZM231.9 922.7L228.4 923.5L230.1 919.5L234.2 918.6L232.9 922.5ZM171.6 828.8L174.7 831.5L178.7 832.4L177.4 836.1L183.1 837.1L187.6 838.7L191.2 839.5L194.1 841.9L198.7 841.3L202.4 843.0L208.8 843.6L214.6 844.3L217.1 841.9L223.8 842.4L227.5 843.8L231.6 846.3L232.7 849.7L236.3 848.4L239.7 849.2L242.0 851.3L246.0 850.0L252.9 851.6L256.2 850.2L260.4 849.0L264.8 849.8L266.6 852.8L263.7 855.5L265.5 860.1L261.0 863.9L248.1 870.2L245.0 873.3L234.2 875.9L227.5 877.9L220.2 882.2L221.6 885.8L218.4 887.7L211.8 894.1L208.0 898.5L203.6 903.2L198.9 910.5L201.2 919.8L204.4 923.3L207.9 924.6L204.0 929.5L197.9 932.5L195.3 934.9L192.9 938.2L191.2 943.5L189.7 947.0L187.5 949.8L180.3 950.0L174.4 953.4L171.5 956.5L168.9 962.1L165.6 965.5L162.0 964.6L156.6 964.9L153.1 966.7L146.3 965.8L141.1 966.8L133.7 965.9L123.6 966.6L121.1 968.4L117.9 970.8L113.0 970.9L108.6 972.4L105.7 976.1L103.2 979.2L96.8 978.9L93.9 977.1L90.0 974.1L88.2 970.4L86.0 968.2L87.1 964.1L84.0 962.0L76.7 957.2L71.3 956.9L67.0 957.5L65.8 952.6L66.3 946.6L69.1 943.1L73.2 940.6L75.3 937.5L68.2 932.1L69.2 928.2L72.2 924.6L74.4 921.4L71.3 918.4L68.8 914.2L66.3 910.2L64.6 907.6L72.4 907.2L75.0 904.8L76.5 900.2L74.0 897.8L77.2 894.5L77.6 890.7L77.6 884.6L75.9 879.8L78.7 877.7L82.6 873.6L85.7 872.1L88.6 869.2L85.9 866.0L82.9 863.4L81.7 860.2L77.7 859.7L72.7 859.7L69.5 861.8L65.0 862.4L61.6 861.3L57.4 861.4L54.1 862.9L51.9 860.5L51.9 856.1L45.9 857.5L41.4 860.2L39.4 856.7L41.5 854.5L42.3 850.2L40.8 847.0L36.7 846.3L38.4 842.6L34.9 840.5L32.9 838.1L34.0 833.8L36.8 832.4L39.6 830.4L43.5 830.8L48.1 829.3L51.3 828.1L53.4 824.0L58.7 822.3L63.5 821.8L67.1 822.5L69.7 824.7L73.4 825.6L81.7 824.8L89.0 824.5L96.0 823.6L99.4 825.0L105.9 825.6L109.9 826.8L120.7 828.6L130.2 827.6L134.7 827.3L139.3 826.6L148.2 829.6L151.4 827.8L156.4 828.7L161.4 830.5L167.9 830.2L170.9 828.9ZM-99.4 1122.6L-101.0 1126.7L-103.3 1128.8L-108.0 1126.8L-110.1 1123.3L-103.6 1122.3L-99.1 1119.4L-95.4 1120.0L-99.4 1122.6ZM-50.6 1113.1L-49.4 1109.4L-46.6 1107.7L-47.6 1112.2ZM-59.6 1126.4L-62.1 1128.4L-60.2 1125.6L-58.8 1122.1L-56.4 1118.4L-53.8 1116.1L-53.4 1122.1L-59.6 1126.4ZM-82.0 1126.8L-88.0 1128.3L-83.0 1127.0ZM-115.3 1129.0L-117.9 1127.3L-114.2 1126.6ZM-127.4 1120.6L-129.1 1114.3L-125.7 1115.3L-127.4 1120.6Z"/><path d="M603.1 797.7L607.5 799.2L610.2 800.9L615.5 802.3L618.7 803.6L621.5 801.0L627.0 801.6L624.4 805.1L625.8 808.5L628.1 810.7L626.1 814.2L622.8 815.7L621.8 818.9L623.1 823.2L624.3 826.4L628.0 829.2L630.3 831.1L633.2 833.5L631.0 837.2L628.2 840.1L623.7 841.0L623.1 845.6L624.8 848.2L623.3 851.3L617.7 852.1L613.2 852.1L610.1 853.3L606.0 852.0L610.0 846.3L603.6 842.9L600.8 839.5L598.7 836.7L595.8 835.1L593.1 833.0L589.1 833.8L586.6 838.6L584.1 841.3L580.9 838.3L576.7 835.8L571.6 834.1L566.8 830.2L563.2 827.9L564.7 824.8L568.3 823.7L565.9 819.3L563.7 816.7L569.3 816.2L567.1 812.5L563.4 809.7L561.5 806.8L563.2 802.5L565.3 798.7L563.5 795.7L559.9 796.7L560.3 790.8L564.7 790.1L560.8 786.3L559.2 783.4L557.6 780.4L556.1 775.1L559.4 772.3L564.3 771.3L567.6 769.4L570.5 767.5L574.8 768.0L580.7 768.1L583.3 770.2L585.9 772.7L588.6 774.3L590.9 777.3L592.4 781.8L595.3 785.7L598.2 787.3L603.5 789.2L604.2 793.1L606.3 795.6L603.0 796.9Z"/><path d="M860.6 1128.8L854.1 1127.5L850.3 1128.3L851.4 1124.7L853.2 1120.3L856.4 1105.1L860.3 1105.7L868.4 1106.9L873.3 1107.6L881.2 1105.1L884.8 1102.6L886.9 1099.5L889.0 1096.5L893.2 1095.3L898.3 1094.4L903.3 1093.5L904.9 1090.8L906.4 1087.7L910.6 1085.3L909.7 1081.2L906.8 1078.3L903.5 1075.0L900.7 1072.4L896.5 1068.6L893.8 1066.1L898.6 1064.9L903.7 1063.6L909.0 1062.3L915.3 1060.7L920.2 1059.5L927.5 1057.7L931.1 1056.8L934.5 1054.3L938.7 1055.0L944.9 1055.9Z"/><path d="M950.1 828.5L941.4 821.8L938.0 818.1L926.5 809.6L919.0 807.7L910.4 800.5L905.2 801.1L902.2 799.7L899.8 795.9L893.5 792.3L888.0 791.0L892.2 788.2L890.1 786.0L894.1 785.2L898.5 787.7L906.6 785.4L906.0 781.2L910.2 775.9L911.9 771.3L914.7 772.8L916.6 769.2L920.6 769.5L919.1 765.9L914.6 762.4L909.6 759.2L912.6 757.3L916.2 755.6L922.5 756.2L921.4 752.8L924.9 751.4L934.2 747.9L937.3 746.0L935.5 742.2L930.5 744.4L925.6 745.1L927.4 742.4L922.2 744.4L917.2 746.4L918.1 743.0L918.0 737.3L920.1 734.3L925.1 733.0L928.5 729.0L932.9 728.7L939.1 729.1L944.1 728.9L946.3 726.0L948.3 721.2L947.7 717.3L947.4 712.3L943.8 711.2L944.9 707.6L948.7 706.3L945.9 703.5L948.4 699.9L949.7 687.1L943.5 685.7L940.4 683.8L936.4 682.5L932.3 681.6L927.7 680.0L923.5 678.3L918.0 675.9L915.9 678.6L912.3 678.0L907.7 674.5L905.8 671.9L903.9 668.8L900.9 666.9L897.7 668.3L890.1 670.0L887.5 672.0L882.8 669.9L879.4 668.1L876.1 666.8L872.1 667.2L868.3 668.1L864.9 663.9L865.5 659.2L863.7 654.8L862.3 651.2L859.4 649.4L857.1 647.3L852.8 648.2L847.8 646.4L843.0 646.3L842.5 641.8L841.4 637.1L845.7 634.3L840.7 627.6L838.9 623.1L835.3 619.0L831.4 618.6L825.4 618.0L818.1 620.5L813.4 619.9L809.5 619.2L806.6 624.2L803.6 625.8L799.0 625.3L795.6 621.4L793.5 619.1L793.6 613.4L792.4 609.1L791.0 604.8L788.2 601.5L789.5 597.6L793.2 595.9L797.2 597.4L802.4 598.9L806.0 597.9L809.3 595.7L812.1 593.0L814.5 590.2L810.1 586.8L809.8 583.0L805.1 580.6L801.2 580.2L796.8 579.8L798.1 576.5L794.4 571.8L790.2 569.5L788.3 566.9L786.2 562.6L785.6 558.3L782.4 556.0L779.0 553.6L780.2 549.3L782.3 546.3L780.4 541.5L780.9 536.7L781.0 531.9L777.5 530.4L775.0 528.2L772.6 525.8L768.4 524.2L762.9 524.2L759.3 526.3L754.4 528.7L752.0 525.9L752.8 522.3L747.1 519.2L741.6 521.5L738.7 518.1L734.4 517.3L729.6 515.8L730.6 512.5L730.0 508.9L728.9 505.4L727.0 502.8L725.7 499.8L724.6 496.4L720.4 495.8L721.4 491.9L722.4 487.4L723.8 484.1L720.7 480.6L718.2 478.8L714.7 475.9L715.6 471.9L717.8 469.0L722.2 466.7L720.7 463.9L718.8 457.9L717.3 453.9L718.1 449.0L716.1 440.0L717.7 435.3L722.3 430.3L724.0 426.0L725.7 422.7L729.2 420.9L727.1 416.9L727.7 411.9L727.9 407.7L730.8 409.5L734.7 409.2L736.5 405.6L740.8 406.9L744.5 406.2L746.9 402.1L757.9 402.2L766.4 404.8L765.2 400.7L761.7 397.0L758.9 394.7L752.4 395.3L746.7 394.8L742.0 390.3L738.8 388.9L736.6 385.5L738.9 381.4L736.4 379.3L730.2 382.7L723.0 383.8L729.7 377.1L734.4 372.2L737.4 370.1L740.6 366.9L745.3 363.3L750.1 359.5L754.6 354.3L758.3 351.0L762.8 345.5L769.8 337.0L773.0 333.6L781.5 324.9L786.2 319.6L788.1 316.6L789.9 312.4L792.7 305.7L790.9 301.5L787.3 296.8L782.3 291.3L776.3 287.2L771.9 284.1L765.1 277.6L768.0 273.5L771.8 268.3L773.5 265.7L773.9 261.4L771.4 256.3L766.1 253.2L763.8 247.4L766.3 243.0L765.4 238.6L760.1 237.1L757.3 233.2L757.1 228.4L760.6 225.8L757.2 221.5L758.8 217.2L759.0 212.1L760.7 208.4L758.9 205.9L764.6 204.6L765.7 200.1L762.9 191.0L760.4 185.0L758.0 181.1L756.5 178.0L754.1 171.1L752.4 167.7L750.9 164.6L747.2 158.5L747.1 153.6L750.0 148.5L752.7 144.2L756.1 139.2L759.4 135.1L763.0 130.1L763.9 125.1L760.8 121.5L755.2 114.2L751.9 108.6L746.6 106.3L739.6 103.2L737.3 96.4L735.6 90.5L740.8 78.3L740.0 74.2L735.3 73.9L737.4 71.4L743.6 67.8L747.7 66.1L752.0 56.3L761.0 52.3L764.0 50.9L766.5 47.7L767.6 44.1L767.1 40.2L771.2 42.2L775.6 44.6L780.1 44.3L781.3 39.2L780.3 33.2L791.2 37.5L795.1 36.1L797.4 31.7L801.9 30.9L800.8 27.3L808.7 29.3L811.9 32.2L818.9 34.7L820.2 38.4L818.4 41.5L804.7 38.2L807.5 43.6L808.4 47.0L813.2 46.5L817.8 47.8L818.9 51.3L824.8 49.3L828.6 51.5L827.7 56.4L826.1 61.6L822.6 65.2L826.2 63.9L831.7 55.5L842.9 54.4L854.7 58.2L860.6 58.1L873.3 59.8L887.4 68.1L908.2 81.7L919.8 93.6L925.4 97.6L942.4 108.2L947.2 108.8L945.7 104.4L948.5 106.4L937.2 186.8L925.4 189.2L920.6 189.4L911.3 188.2L906.3 186.9L900.0 183.1L894.2 181.3L890.3 180.5L882.9 180.1L866.8 176.4L854.0 167.9L850.0 170.0L846.0 167.9L841.4 164.3L836.7 164.1L834.2 162.4L831.1 161.0L822.8 158.7L820.0 156.1L817.2 151.5L808.8 146.2L799.4 145.9L805.1 147.8L807.7 149.7L810.7 152.2L810.0 155.8L814.2 159.2L817.3 162.5L823.4 165.2L823.4 169.4L827.6 173.0L832.2 174.6L828.9 178.4L840.7 183.1L846.1 186.9L851.5 193.8L853.3 197.1L852.3 202.8L850.1 210.7L846.2 215.0L848.6 219.5L851.1 223.6L853.6 230.4L854.2 237.3L854.8 246.1L857.9 250.5L862.6 253.3L869.3 252.8L872.2 254.3L878.6 259.6L881.5 265.2L889.2 268.4L894.1 269.7L901.5 273.0L906.4 270.3L912.6 268.3L914.5 265.5L912.8 259.0L912.3 254.9L908.3 252.1L902.6 252.9L898.0 251.7L895.3 248.7L890.2 241.5L887.5 239.1L885.8 235.5L888.1 232.3L890.6 230.3L892.4 223.4L897.2 222.6L904.4 225.8L913.4 234.4L917.4 235.4L921.4 236.3L924.6 237.8L932.8 240.5L942.4 245.7L947.3 242.6L948.5 220.3L946.7 216.7L945.8 213.0L947.0 207.3ZM872.5 223.1L873.3 227.0L871.8 230.7L869.9 227.7L867.1 224.2L870.9 222.5ZM595.6 540.0L593.7 542.6L588.8 548.1L592.2 549.1L596.3 550.3L599.9 549.4L600.5 544.7L600.8 540.4L604.7 541.2L609.1 543.2L612.7 544.9L616.3 545.9L621.5 545.9L625.6 546.0L628.7 549.6L630.5 552.1L628.2 557.7L627.7 561.5L629.3 565.2L618.1 565.1L608.2 564.6L599.0 564.2L590.1 563.8L581.6 563.4L576.3 563.1L571.1 562.7L573.2 560.1L575.1 557.6L576.7 554.5L577.3 549.8L585.1 549.0L590.4 544.8L593.5 541.3ZM831.1 769.2L835.0 766.6L839.1 768.9L845.2 770.0L848.4 771.9L853.4 773.8L856.3 777.5L862.1 783.8L864.2 785.9L867.7 786.9L871.3 785.1L876.1 785.5L879.1 783.7L883.9 784.1L885.5 787.0L883.9 790.4L880.2 793.2L873.5 793.7L869.9 791.5L863.9 794.3L860.2 796.1L855.2 797.7L847.4 800.0L843.9 804.1L840.0 806.6L834.1 807.1L828.4 803.7L829.9 800.9L831.4 795.9L830.3 791.6L827.3 789.6L818.5 786.0L812.8 786.5L816.8 780.5L822.7 777.0L828.7 775.0L832.4 772.5L831.1 769.2Z"/><path d="M730.8 783.7L732.7 786.1L741.0 788.6L746.0 786.7L749.6 784.8L756.0 785.5L758.6 788.0L757.3 794.3L755.8 797.3L746.4 799.2L747.2 794.4L743.4 795.6L742.6 800.1L742.7 804.8L739.8 807.7L739.1 816.2L737.8 820.3L734.7 821.6L731.0 820.9L727.8 819.8L724.7 816.2L720.7 815.9L716.1 815.4L710.4 812.7L705.3 812.7L698.7 814.1L693.6 815.7L688.3 818.7L686.2 821.0L680.2 823.1L673.9 822.7L667.3 821.6L660.3 820.4L656.5 821.1L651.4 820.6L643.6 819.1L637.8 818.7L632.1 819.5L633.4 815.5L629.4 811.6L627.1 808.9L624.2 806.3L626.6 803.5L624.3 800.3L618.7 803.6L615.5 802.3L610.2 800.9L607.5 799.2L603.1 797.7L606.3 796.0L603.4 794.4L605.1 791.4L600.6 788.4L596.8 786.6L594.0 784.3L592.0 780.4L589.9 776.3L587.7 773.6L584.4 771.9L582.2 768.9L587.2 767.6L591.4 766.9L597.1 765.8L599.5 763.3L601.1 760.3L603.1 757.2L605.6 755.3L607.3 751.3L608.5 748.3L611.0 745.3L612.6 741.4L614.9 739.3L617.1 735.2L619.6 732.3L622.8 730.7L627.6 729.9L630.9 727.0L634.7 725.0L637.4 723.2L641.2 725.4L645.4 725.3L652.3 726.7L657.5 727.3L661.3 726.4L664.4 728.1L667.9 730.8L672.3 731.1L679.6 727.3L683.8 726.8L687.8 725.9L692.6 725.3L694.7 722.5L697.8 719.7L702.8 718.9L706.3 720.2L708.4 722.6L711.0 726.1L712.5 728.9L714.5 733.6L716.8 736.0L719.6 740.6L722.5 743.2L724.1 745.8L728.2 749.0L729.6 753.3L731.3 756.7L731.4 761.1L729.0 768.2L728.9 774.0L729.7 777.8L729.8 782.3Z"/><path d="M-115.4 1040.5L-110.5 1041.0L-106.1 1042.5L-108.8 1044.6L-115.0 1043.2ZM41.4 860.2L44.9 857.8L49.9 856.5L53.3 858.1L51.7 861.2L56.1 862.1L61.6 861.3L65.0 862.4L69.5 861.8L71.8 859.4L77.1 860.1L81.7 860.2L82.9 863.4L85.9 866.0L89.1 868.2L85.7 872.1L82.6 873.6L78.7 877.7L75.9 879.8L77.6 884.6L77.6 890.7L77.2 894.5L74.3 896.4L76.1 899.5L75.0 904.8L72.4 907.2L66.1 907.2L67.8 911.4L71.3 918.4L74.6 920.0L72.2 924.6L69.3 926.9L68.3 931.2L72.6 937.6L74.1 940.3L69.1 943.1L66.3 946.6L65.3 950.7L67.0 957.5L59.0 961.0L53.4 959.5L46.9 959.1L42.1 959.6L38.5 960.8L40.7 952.6L41.2 946.5L39.5 942.0L41.0 937.5L39.5 932.3L43.5 932.7L41.0 930.8L35.5 932.1L32.6 928.0L36.9 926.2L38.4 921.1L41.2 919.5L38.1 920.8L35.6 924.4L32.6 926.9L28.4 926.5L29.2 921.9L30.7 916.1L32.6 912.4L34.5 910.1L37.2 904.4L40.3 898.3L41.5 888.2L43.2 885.1L43.7 879.4L42.1 874.0L40.9 868.2L39.4 863.9L41.4 860.2Z"/><path d="M589.3 66.7L579.9 67.4L583.0 71.2L584.2 74.9L583.7 79.0L582.2 82.5L580.5 85.4L577.1 88.2L582.2 91.0L578.8 94.7L575.3 95.9L572.0 94.6L563.9 91.5L560.1 90.3L554.8 90.0L547.5 87.3L543.5 88.8L543.4 97.8L543.7 102.8L541.8 107.5L538.9 112.7L532.3 109.2L527.9 106.9L525.0 110.0L517.8 115.6L514.1 126.7L511.7 129.9L506.8 131.8L505.6 135.1L508.4 139.7L511.3 146.1L510.7 150.2L507.6 153.3L501.0 161.7L494.9 170.3L492.4 172.7L493.6 180.0L487.4 184.5L483.0 185.9L476.0 186.9L477.3 194.5L477.7 199.9L476.1 205.5L474.8 218.6L472.5 223.5L468.1 231.9L464.5 237.4L459.4 245.3L463.6 247.8L467.4 249.6L468.7 257.1L467.1 263.0L465.2 265.9L459.8 265.0L452.9 263.8L447.0 264.6L443.4 266.4L441.0 268.6L438.6 272.1L434.3 278.2L431.9 280.9L432.6 284.5L428.6 291.6L431.2 298.6L432.7 301.7L430.7 304.5L431.2 311.4L430.8 315.8L434.3 326.2L434.1 330.2L433.0 336.6L431.5 345.2L434.1 347.4L437.7 350.1L442.8 354.3L445.1 357.3L444.1 361.6L442.2 365.3L437.4 367.5L434.1 368.8L436.9 378.9L439.0 383.5L438.9 389.6L438.2 393.3L437.7 397.5L434.1 401.9L430.0 404.1L426.4 407.7L422.7 413.6L423.9 418.6L424.9 423.0L424.0 427.0L423.3 431.3L420.1 435.1L417.2 430.7L412.5 427.5L409.0 426.6L405.2 422.8L403.4 419.9L403.2 413.3L402.5 408.2L402.0 413.8L398.8 415.9L399.8 420.3L395.9 430.0L390.6 432.8L387.6 431.0L384.6 428.3L385.7 431.6L383.0 433.9L378.5 436.2L377.2 439.8L371.4 444.9L363.8 453.0L359.9 455.3L357.2 457.7L351.8 459.6L344.1 461.4L339.1 460.6L335.5 461.3L333.4 459.0L327.8 459.1L329.7 455.3L326.0 454.3L317.8 450.8L311.4 446.3L309.1 443.4L307.8 440.2L308.5 432.6L314.1 433.1L318.7 435.8L320.8 433.5L323.6 431.8L318.7 433.3L314.8 430.0L316.2 426.2L317.8 420.5L320.5 418.4L324.6 415.0L319.8 416.8L317.1 419.1L313.9 421.0L310.4 422.3L306.9 425.6L301.4 426.9L301.6 417.9L302.7 414.5L305.7 411.6L309.0 410.7L312.6 411.5L316.7 408.8L320.9 406.5L316.2 406.7L311.8 405.1L316.8 399.8L318.9 396.7L323.3 389.7L326.5 387.9L326.6 394.1L329.1 389.2L331.5 386.4L335.4 384.6L323.3 387.5L319.7 389.9L316.2 394.3L314.5 398.6L311.2 400.5L308.6 403.7L304.8 408.4L302.6 410.5L300.4 406.1L302.3 401.5L303.1 398.1L307.4 398.6L311.0 396.9L306.0 396.0L301.6 391.1L300.7 386.7L308.4 381.0L302.7 382.7L300.3 380.6L298.4 373.4L298.3 367.6L303.6 367.3L307.6 367.0L316.5 365.0L322.3 366.2L328.2 364.4L333.7 365.5L335.1 369.0L336.2 365.9L345.6 363.1L341.9 359.0L343.9 355.1L340.6 359.6L338.7 363.4L334.4 363.6L329.1 362.1L326.0 363.8L318.4 363.4L310.2 364.0L306.6 365.5L300.2 362.7L298.0 356.5L301.4 353.9L300.0 348.5L296.8 345.5L296.9 339.9L306.9 339.3L313.0 341.6L317.1 343.0L325.5 342.3L330.4 340.2L324.2 340.8L319.3 340.8L310.6 338.4L307.0 337.7L301.2 337.3L300.8 330.5L304.8 330.7L307.2 327.8L311.6 323.1L315.1 321.8L318.4 324.1L327.6 322.1L321.7 321.8L321.9 316.1L328.3 314.8L334.7 314.6L340.7 315.4L344.6 317.5L348.3 316.0L345.1 314.0L350.5 311.4L355.9 311.0L343.1 311.7L340.0 310.3L335.9 311.1L331.4 312.1L334.1 305.1L342.7 300.9L346.1 298.3L351.5 297.8L356.0 298.6L358.0 301.9L365.7 307.1L360.4 300.3L357.0 296.1L359.2 291.8L364.9 290.8L365.2 286.9L361.3 286.2L364.8 280.7L369.8 279.1L375.3 280.9L374.1 284.2L378.8 281.8L382.4 281.2L385.7 279.8L388.2 283.4L391.0 287.9L394.9 285.8L402.4 286.1L404.5 283.0L405.9 278.9L409.1 277.2L414.2 274.9L416.5 272.3L413.3 270.1L418.5 266.3L415.7 264.7L411.4 266.9L408.4 269.3L410.9 272.0L408.8 274.7L397.7 281.7L392.4 283.8L389.4 281.6L387.0 277.2L384.2 273.8L385.9 271.3L388.8 269.4L391.5 263.5L395.8 260.0L401.9 251.3L406.9 248.5L408.7 245.5L411.7 244.1L414.2 241.7L419.8 239.3L421.8 236.8L417.3 238.3L416.5 233.4L419.1 230.8L431.6 223.2L434.3 226.7L438.1 226.2L442.4 221.8L445.7 217.1L442.0 219.9L438.2 222.6L434.9 220.9L431.1 219.4L432.5 211.6L433.7 208.5L440.3 199.4L441.5 195.7L443.9 193.7L446.8 191.1L443.5 189.2L454.5 184.8L459.8 184.9L464.3 182.3L460.0 181.2L456.6 182.1L449.5 182.9L448.5 175.1L449.2 170.8L451.2 166.8L453.1 164.3L457.0 162.8L462.0 161.1L460.4 158.4L462.3 154.0L466.3 149.4L469.7 147.9L472.3 146.0L477.1 145.4L492.3 144.2L490.1 142.0L481.3 141.5L476.7 141.6L476.7 136.7L480.0 132.1L483.8 129.0L489.9 132.7L493.2 134.1L494.9 138.1L497.4 131.2L491.1 130.2L489.2 127.8L489.8 123.4L485.3 124.5L481.8 125.3L481.2 121.7L485.4 113.1L489.7 112.9L494.0 114.3L495.8 111.8L491.2 111.1L493.6 106.9L496.8 104.3L500.4 103.6L503.3 101.6L505.4 110.1L508.0 116.0L508.0 111.2L510.1 108.6L508.0 105.1L506.4 99.3L510.4 94.7L514.7 94.0L519.3 96.2L523.6 95.6L528.1 93.8L532.1 93.2L529.8 90.8L525.6 91.7L514.1 91.4L514.0 86.0L519.7 82.0L524.3 81.6L529.1 77.0L531.0 73.6L532.0 68.2L534.9 63.9L542.3 61.4L541.9 53.9L543.9 49.1L549.4 52.1L552.5 54.0L556.5 54.4L554.4 51.5L552.1 49.0L553.0 45.1L558.9 43.3L559.8 38.8L562.8 34.8L571.9 32.2L572.1 41.0L571.0 45.9L575.2 36.0L577.0 31.3L579.0 28.7L581.9 26.6L584.9 29.4L583.9 38.1L582.9 44.4L578.5 52.5L586.8 44.2L591.5 45.1L590.1 42.2L587.7 37.4L587.9 30.1L589.3 27.3L593.4 27.6L597.0 28.5L601.1 23.2L607.4 26.1L610.9 28.5L613.7 31.8L613.0 23.1L611.3 20.3L607.7 18.8L603.8 15.2L606.4 11.4L610.9 12.7L614.9 9.7L619.1 9.0L622.2 10.4L627.8 5.9L630.9 7.5L633.3 12.3L634.5 18.6L636.9 22.0L640.2 24.1L639.4 20.4L639.8 13.7L646.0 4.7L650.4 1.0L657.6 -7.7L660.1 -9.6L657.3 -13.0L660.5 -18.7L664.5 -23.9L667.8 -22.8L671.7 -20.4L674.1 -17.7L677.9 -18.7L683.0 -17.8L685.5 -15.1L679.6 -8.1L676.0 -2.5L673.6 8.3L670.8 13.2L671.7 18.3L674.9 17.0L678.7 12.4L679.7 7.5L689.3 -5.9L693.8 -13.4L699.0 -19.7L703.2 -16.8L702.1 -11.4L699.9 -8.0L701.3 -2.4L700.4 2.2L708.0 -0.5L709.5 -5.1L710.9 -8.6L713.9 -14.4L718.4 -14.4L713.2 -19.5L714.4 -23.7L719.3 -28.3L723.4 -26.8L729.5 -26.0L734.1 -22.7L734.0 -17.6L731.9 -14.2L725.9 -10.3L730.8 -9.7L730.6 -3.6L730.4 2.8L729.9 6.6L730.4 11.8L732.0 4.5L735.0 -0.1L735.9 -5.6L738.2 -12.3L740.8 -16.2L747.4 -17.2L751.4 -12.4L757.4 -9.7L759.2 -7.0L763.3 -9.2L768.5 -5.8L772.0 -2.2L775.2 -1.1L781.4 4.7L781.7 10.6L772.8 14.1L769.0 17.5L762.7 18.8L741.4 16.6L756.7 24.4L757.0 29.1L757.3 33.4L760.2 35.7L765.7 36.2L767.4 30.6L771.5 35.5L773.1 32.7L777.4 32.7L781.3 39.2L780.8 43.3L775.6 44.6L771.2 42.2L768.3 40.0L767.6 44.1L766.5 47.7L764.0 50.9L761.0 52.3L752.7 55.1L749.4 64.0L744.8 67.3L742.3 63.0L745.9 55.5L749.0 52.0L751.7 47.3L748.1 38.3L741.7 35.6L734.5 31.4L731.8 29.2L727.7 24.6L724.8 20.5L719.2 21.4L714.7 25.1L712.0 27.0L707.0 26.6L700.4 26.7L695.3 33.3L692.5 36.3L689.8 39.2L686.8 52.0L685.2 55.8L685.2 64.9L683.0 71.8L679.9 73.5L675.6 76.1L672.5 84.0L669.8 86.0L665.4 83.4L661.4 81.9L655.1 78.7L652.2 77.1L648.0 78.8L642.3 82.3L636.3 83.9L630.1 81.6L624.3 80.5L622.1 78.0L620.6 74.6L616.5 68.6L611.6 61.5L608.0 56.3L601.3 56.2L597.6 58.8L598.7 64.7L594.3 65.1L589.3 66.7ZM297.4 366.1L294.9 363.0L297.4 366.1ZM299.8 391.1L298.1 394.6L297.3 390.0L298.0 386.5L299.8 391.1ZM763.3 32.6L759.7 33.9L761.0 27.6L764.0 29.1ZM428.0 206.2L424.5 207.1L426.3 203.2L428.0 206.2ZM362.9 278.3L367.3 274.5L362.9 278.3ZM356.0 290.0L352.0 289.4L352.9 286.0L356.6 286.7ZM641.8 -15.0L639.3 -10.5L634.9 -4.4L631.5 -2.5L627.2 -2.8L623.1 -0.4L618.1 -2.9L616.0 -5.4L619.3 -7.9L622.8 -9.6L631.0 -10.8L637.5 -15.0L641.0 -16.3ZM681.8 -30.8L686.8 -28.9L691.0 -25.5L689.5 -22.7L685.7 -22.1L679.9 -24.8L676.8 -26.4L681.8 -30.8ZM645.1 -2.3L645.6 1.7L643.8 4.3L639.8 7.8L636.6 10.2L635.7 6.6L632.1 5.4L634.1 0.6L638.3 -0.2L643.8 -5.5L645.1 -2.3ZM652.6 -3.2L649.1 -1.3L646.1 -4.6L646.5 -10.6L651.5 -9.5L653.7 -7.1L652.6 -3.2ZM463.5 100.0L467.5 100.5L463.8 104.1L461.8 106.8L456.5 109.1L453.8 110.8L451.0 107.6L452.9 104.5L457.3 100.7L461.9 99.6ZM446.7 116.5L444.0 118.7L445.0 114.7L446.5 110.6L448.5 108.2L449.1 113.1L446.7 116.5ZM488.4 70.8L490.8 75.2L491.0 82.6L488.7 85.0L482.5 85.2L480.7 82.7L477.3 84.0L473.5 83.0L475.2 78.2L478.8 76.4L481.7 74.9L485.2 72.9L485.2 68.2L488.4 70.8ZM573.4 13.3L577.6 16.4L575.8 20.1L573.0 18.2L570.5 13.2ZM592.2 19.2L588.9 20.0L585.3 17.8L586.9 13.9L589.9 12.6L593.0 13.8L592.2 19.2ZM563.8 20.2L567.0 22.5L570.1 24.7L567.3 27.5L565.3 31.5L561.5 32.0L559.2 34.3L557.4 36.7L555.5 39.7L548.1 43.7L542.9 43.4L544.7 39.9L546.3 36.3L548.0 33.3L551.3 32.2L553.0 29.5L555.8 25.1L558.5 21.3L560.0 17.1L561.6 12.0L563.7 15.0L563.8 20.2ZM438.1 195.7L438.9 191.8L443.2 192.2L438.1 195.7ZM436.5 190.2L437.0 186.0L440.2 185.0L439.4 189.1ZM414.3 234.9L406.9 235.7L410.4 230.7L414.6 233.3ZM531.2 41.7L533.4 44.3L537.9 44.1L540.5 45.8L541.9 50.7L539.4 53.7L539.5 59.5L536.2 60.7L532.4 61.2L527.8 62.5L524.8 67.1L521.1 65.2L521.8 59.9L521.3 55.7L523.4 50.6L528.5 51.4L526.1 47.1L528.4 44.8L530.8 42.9ZM498.7 87.4L501.5 83.5L504.5 80.8L505.4 77.0L507.4 74.7L511.1 75.2L513.4 80.6L509.5 87.1L504.1 91.6L501.6 94.7L497.3 96.2L492.7 98.0L490.8 95.2L488.0 98.1L483.2 98.3L477.6 102.9L472.4 103.7L470.7 100.4L474.1 96.8L476.8 94.3L486.3 92.5L492.2 85.0L493.7 76.8L495.1 73.8L492.8 71.8L493.5 66.4L496.6 62.4L501.2 56.0L505.6 56.2L503.0 63.3L499.7 67.2L501.4 72.3L501.8 76.2L499.3 85.0ZM38.1 -16.1L46.2 -25.4L49.5 -30.7L55.9 -32.5L55.9 -25.9L50.3 -23.0L44.1 -21.0L38.1 -16.1ZM563.2 -204.0L560.9 -201.7L557.6 -205.1L555.3 -209.5L562.5 -211.4L564.2 -207.8L563.2 -204.0ZM649.3 -406.2L647.4 -403.6L643.1 -399.2L635.5 -398.0L631.8 -392.8L629.9 -390.2L625.3 -389.6L623.0 -393.1L624.1 -396.3L623.2 -401.2L612.3 -405.9L597.3 -402.1ZM537.6 -406.1L533.4 -399.1L530.1 -386.6L528.3 -381.7L524.7 -374.1L526.5 -368.5L524.5 -363.4L521.4 -357.6L522.5 -351.3L523.0 -347.1L520.6 -343.5L516.2 -341.7L511.8 -343.7L509.6 -346.2L507.6 -350.0L505.5 -352.6L494.7 -362.8L486.9 -376.7L479.7 -382.1L475.0 -384.7L472.7 -387.3L470.5 -390.7L468.6 -394.5L466.8 -399.4Z"/><path d="M316.7 658.6L312.1 658.4L310.2 655.7L312.2 652.7L313.6 649.2L309.5 647.4L307.1 645.2L302.2 645.4L299.6 642.2L295.3 642.3L291.4 641.8L287.8 640.8L285.2 643.3L279.7 641.3L276.2 642.1L271.8 641.0L269.3 638.8L274.8 637.4L282.2 640.9L279.6 637.4L282.1 635.4L278.6 631.9L280.0 628.9L283.4 625.6L286.6 622.1L288.5 619.2L290.0 615.7L292.2 606.2L293.9 602.8L299.3 602.3L304.9 598.7L306.5 595.6L314.5 591.4L318.0 590.5L323.4 590.3L327.3 589.8L332.0 589.6L334.9 592.6L339.1 593.8L339.0 601.2L337.6 604.2L336.4 607.9L330.8 610.8L329.9 614.3L334.0 615.8L336.1 618.6L335.0 621.8L331.7 624.3L331.3 628.7L326.5 630.8L319.9 630.1L315.9 632.1L317.8 635.8L319.5 638.5L320.4 642.1L318.2 646.8L316.1 651.0L317.7 654.8L316.7 658.6ZM283.8 642.7L280.3 646.2L276.4 647.1L273.6 645.5L269.7 646.3L267.4 642.9L271.9 642.4L277.4 643.5L281.6 643.3ZM315.5 589.2L310.6 589.3L314.5 588.7ZM300.2 593.1L296.8 595.1L300.2 593.1ZM304.3 591.1L308.6 589.6L304.3 591.1ZM296.1 599.4L293.1 600.7L296.1 596.4ZM278.6 633.7L280.9 636.0L276.2 634.9Z"/><path d="M163.6 998.0L165.3 1000.6L169.2 1003.2L171.6 1005.3L172.6 1009.7L173.2 1015.8L173.0 1021.8L174.6 1027.3L173.7 1032.0L176.1 1036.6L176.9 1040.3L179.8 1043.6L182.9 1045.3L185.1 1047.9L181.9 1050.4L182.2 1054.7L177.5 1054.9L171.1 1054.7L166.4 1054.5L159.4 1054.2L154.3 1054.9L150.4 1055.9L148.8 1059.7L140.9 1062.1L136.0 1062.2L133.3 1063.7L134.2 1067.1L133.6 1071.5L136.6 1073.1L133.1 1076.5L127.7 1078.6L124.4 1080.7L120.6 1082.0L115.9 1083.3L112.4 1084.9L110.7 1087.5L108.5 1090.4L103.5 1094.2L97.4 1095.8L93.1 1096.5L89.2 1096.8L84.2 1096.7L82.6 1100.6L77.2 1100.6L72.8 1100.2L68.0 1102.6L65.5 1104.4L61.8 1105.2L57.0 1108.3L51.0 1111.8L48.5 1113.7L45.5 1115.7L43.2 1118.3L43.2 1123.6L-27.4 1129.2L-18.4 1127.1L-10.3 1123.9L-5.6 1120.0L-1.5 1116.6L6.1 1112.6L9.6 1110.3L14.9 1104.6L18.4 1099.9L21.4 1096.9L23.4 1094.2L25.6 1087.0L22.9 1082.4L21.8 1077.9L22.2 1067.3L24.7 1062.0L30.8 1055.1L32.6 1047.6L40.3 1039.5L44.8 1034.5L50.3 1030.9L64.1 1025.9L71.8 1022.3L76.4 1019.7L79.1 1016.6L86.6 1004.3L94.0 986.9L97.9 984.2L102.1 983.3L106.6 982.5L107.1 988.1L109.9 991.0L114.9 994.6L118.7 996.0L124.3 996.9L130.8 995.3L136.2 994.6L141.7 995.9L147.9 993.9L151.5 996.7L155.9 997.8L163.6 998.0Z"/><path d="M562.7 826.1L564.6 828.7L569.4 833.0L573.6 835.2L580.9 838.3L584.1 839.9L581.7 841.9L578.3 843.4L579.0 847.1L575.1 848.6L572.9 846.0L569.2 848.5L566.5 851.7L564.3 855.3L565.7 858.4L562.6 860.0L557.1 853.7L552.2 850.9L549.3 848.7L550.6 845.3L549.1 842.4L548.7 838.3L552.1 837.0L552.7 833.4L556.3 830.1L559.6 831.3L558.6 828.0L561.2 826.2Z"/><path d="M701.1 719.0L705.3 716.0L712.4 716.4L715.7 715.3L718.7 714.0L723.5 715.3L726.1 717.3L729.8 719.5L732.9 721.4L735.4 723.0L741.2 722.3L743.0 725.3L746.1 726.3L749.1 727.9L748.9 733.2L748.0 737.1L751.7 739.8L753.9 741.7L755.0 745.5L756.1 749.3L758.9 751.2L762.6 753.5L762.7 759.1L766.5 761.7L761.8 763.2L758.6 761.1L754.6 761.5L750.2 762.4L748.9 759.4L744.7 760.9L745.6 767.3L742.6 771.8L740.4 774.7L737.3 777.3L736.4 781.0L732.6 782.7L728.9 781.1L729.3 776.1L728.7 772.0L730.5 763.4L731.3 756.7L729.6 753.3L728.2 749.0L724.1 745.8L722.5 743.2L719.6 740.6L717.8 737.4L714.5 733.6L712.8 730.3L711.0 726.1L708.4 722.6L706.3 720.2L702.8 718.9Z"/><path d="M476.5 983.5L472.5 983.1L476.5 983.5Z"/><path d="M606.8 853.7L611.5 852.5L616.0 852.5L619.5 851.3L624.3 855.5L627.7 857.7L630.6 859.1L631.9 862.4L633.7 864.9L632.3 872.5L628.5 876.3L624.2 877.5L619.4 876.7L614.9 877.2L610.9 881.0L607.1 882.7L602.4 882.8L598.2 883.0L593.9 881.7L590.0 878.7L586.8 874.3L586.1 869.1L587.1 865.2L588.3 861.6L591.7 858.6L597.5 855.3L601.1 856.8L603.6 854.3Z"/><path d="M319.0 674.2L320.6 679.2L325.0 681.9L324.4 685.8L323.3 689.0L319.1 689.7L313.5 689.2L314.6 685.8L312.9 683.0L312.0 679.1L314.3 675.1L317.8 673.4Z"/><path d="M595.6 540.0L596.6 536.5L598.0 531.5L597.0 538.0ZM629.3 565.2L627.7 561.5L628.2 557.7L630.5 552.1L628.7 549.6L625.6 546.0L621.5 545.9L616.3 545.9L612.7 544.9L609.1 543.2L604.7 541.2L600.8 540.4L600.8 535.1L599.6 530.5L597.5 525.1L597.4 519.2L602.2 514.5L608.5 510.9L615.8 508.5L621.8 508.7L625.9 509.2L631.3 508.6L634.4 510.7L645.1 510.4L652.4 511.5L659.1 511.8L665.3 509.0L669.1 508.6L672.2 514.2L681.8 516.2L687.2 520.0L691.1 522.7L693.5 525.1L697.0 528.1L700.6 529.2L699.2 535.3L702.2 539.2L700.7 544.1L695.0 543.8L692.8 547.6L688.9 549.1L685.5 552.2L684.4 555.4L684.4 559.5L682.5 562.4L681.1 565.8L684.9 567.8L683.6 571.0L680.2 570.1L677.8 568.0L674.3 569.0L671.8 571.2L667.7 571.6L666.6 575.4L661.2 576.6L656.7 576.9L652.4 576.6L647.3 577.1L642.7 576.4L642.1 570.9L638.9 568.3L635.3 566.7L631.7 564.2Z"/><path d="M383.5 747.1L381.8 744.5L383.8 746.7Z"/><path d="M382.4 1089.2L387.8 1087.2L392.5 1082.8L395.4 1079.1L395.9 1074.5L394.6 1070.5L393.5 1066.6L396.5 1062.5L400.2 1061.6L402.5 1058.8L405.7 1056.3L410.1 1053.5L413.1 1051.9L416.7 1050.2L420.0 1047.8L418.5 1044.7L418.6 1039.9L419.4 1035.1L425.2 1036.2L433.9 1040.6L442.7 1041.7L449.8 1039.9L457.3 1041.3L462.8 1041.9L468.8 1043.4L473.8 1046.4L487.8 1049.4L491.2 1053.7L492.3 1059.7L493.8 1063.0L497.7 1067.3L505.5 1070.3L511.6 1070.9L517.7 1071.2L528.3 1073.6L537.3 1076.5L544.0 1079.2L552.9 1085.8L557.9 1088.1L564.5 1088.2L570.1 1085.9L578.0 1078.8L579.8 1075.8L580.4 1071.5L578.1 1067.6L576.4 1060.0L577.2 1056.7L580.0 1052.6L584.6 1048.6L589.3 1045.9L597.5 1042.2L602.3 1042.2L608.2 1039.2L612.0 1039.7L618.5 1039.5L624.8 1041.9L629.1 1042.9L635.3 1045.1L635.7 1049.3L639.0 1052.7L648.5 1053.7L653.0 1056.0L661.2 1056.7L668.6 1057.0L671.4 1058.8L673.1 1062.0L671.3 1065.7L668.2 1069.0L668.6 1074.0L670.4 1079.2L669.5 1083.2L665.8 1088.8L667.3 1095.5L668.4 1101.2L669.3 1104.7L670.5 1108.2L670.5 1116.3L670.5 1124.3L388.7 1128.6L387.9 1119.4L388.4 1112.1L387.7 1108.3L386.6 1104.8L385.3 1101.3L382.9 1097.1L380.0 1093.5L382.4 1089.2Z"/><path d="M875.5 1007.1L880.8 1007.0L882.9 1009.7L886.8 1014.9L884.4 1018.0L881.5 1019.9L878.7 1022.2L875.7 1023.8L876.3 1027.4L873.5 1029.9L871.0 1031.7L867.2 1033.3L864.9 1036.6L859.3 1036.4L861.1 1033.1L863.5 1028.5L866.8 1021.4L868.7 1018.5L869.3 1014.4L872.3 1010.8L875.5 1008.7Z"/><path d="M700.6 529.2L697.0 528.1L693.5 525.1L691.1 522.7L687.2 520.0L683.3 516.9L674.8 514.8L669.9 510.6L667.9 508.2L662.1 511.5L654.5 512.4L648.8 510.5L637.3 509.5L633.0 509.1L625.9 509.2L621.8 508.7L616.6 508.3L610.0 510.6L602.2 514.5L597.2 517.9L596.6 512.5L596.9 501.8L597.7 496.4L601.2 493.2L603.9 487.5L604.9 481.9L609.9 474.7L613.9 473.9L619.3 471.9L625.3 470.2L627.1 474.0L634.3 479.9L639.0 488.7L645.7 492.1L651.0 491.1L657.5 486.3L659.8 481.9L659.0 472.5L657.9 468.4L660.8 464.7L666.7 462.4L673.0 460.1L675.7 462.1L681.6 463.7L685.7 465.9L689.4 466.8L693.6 472.0L698.2 475.4L704.8 474.1L708.8 474.4L714.3 476.0L718.2 478.8L720.7 480.6L723.6 482.8L722.4 487.4L721.4 491.9L720.1 495.8L724.6 496.4L725.7 499.8L727.0 502.8L728.9 505.4L730.0 508.9L730.6 512.5L729.6 515.8L724.9 517.7L721.1 521.5L719.2 525.2L713.9 525.3L709.2 524.6L704.9 528.0L701.1 528.8Z"/><path d="M584.1 841.3L586.3 839.2L589.4 836.9L590.8 832.7L594.3 834.3L597.4 835.6L600.5 838.5L603.9 841.2L608.7 844.4L607.9 850.0L606.5 853.0L602.5 855.0L597.5 855.3L592.2 857.5L591.2 861.6L588.5 858.7L587.5 855.3L585.3 853.1L582.2 851.8L579.7 847.8L578.3 843.4L581.7 841.9Z"/><path d="M871.9 1043.0L875.1 1044.2L877.0 1046.7L881.2 1048.1L884.8 1049.9L891.2 1050.8L896.2 1048.0L900.5 1045.7L905.3 1043.0L908.6 1041.2L914.2 1038.1L917.9 1036.1L922.8 1033.5L927.6 1031.0L928.9 1035.2L930.2 1039.2L931.6 1043.4L932.9 1047.5L934.4 1050.5L937.3 1052.1L934.5 1054.3L931.8 1056.5L927.5 1057.7L920.2 1059.5L915.3 1060.7L909.0 1062.3L903.7 1063.6L898.6 1064.9L893.8 1066.1L896.5 1068.6L900.7 1072.4L903.5 1075.0L906.8 1078.3L909.7 1081.2L912.8 1084.3L907.0 1087.1L904.9 1090.8L903.3 1093.5L898.3 1094.4L893.2 1095.3L889.0 1096.5L886.9 1099.5L884.8 1102.6L881.2 1105.1L877.2 1107.9L868.4 1106.9L863.6 1106.2L856.4 1105.1L857.7 1097.3L858.5 1093.8L859.9 1090.8L860.0 1086.4L861.7 1081.1L863.2 1077.7L865.5 1072.7L865.7 1066.3L866.6 1062.7L867.2 1056.9L867.9 1052.2L867.9 1045.1L871.0 1043.1Z"/><path d="M335.8 773.0L341.6 773.3L345.5 771.8L350.1 773.1L354.0 771.0L356.4 767.7L358.4 763.6L361.0 761.2L362.3 764.9L364.6 767.7L369.3 769.6L370.6 773.2L373.2 774.8L372.8 771.0L376.5 766.4L377.6 762.4L380.2 760.4L381.7 763.4L387.4 763.5L392.1 765.9L392.9 761.8L393.9 757.3L398.1 758.9L398.9 754.6L402.2 751.8L405.5 753.2L409.9 753.6L412.5 749.9L418.1 748.9L423.0 748.8L428.1 747.6L431.8 746.6L433.6 752.3L435.9 755.3L439.8 756.4L443.6 757.1L450.4 758.3L456.4 758.7L460.3 759.5L457.8 761.9L454.7 764.1L457.4 766.9L456.3 770.5L457.9 775.1L460.7 776.7L463.6 780.0L459.0 776.5L455.9 777.9L451.1 776.5L447.8 779.5L442.8 781.6L437.9 783.5L433.7 783.8L432.8 788.4L436.0 792.9L437.9 796.1L435.8 798.3L433.3 800.0L434.3 806.5L436.0 811.0L441.5 816.0L445.5 817.6L452.8 822.7L456.7 824.4L460.2 829.2L462.3 833.7L464.5 840.8L466.1 844.3L469.3 848.2L476.0 853.8L482.1 857.8L487.7 860.4L492.1 860.8L502.5 860.2L506.3 861.2L503.8 865.3L501.3 869.3L513.5 875.1L523.7 878.7L526.9 880.5L530.7 883.3L539.6 887.2L546.6 893.0L549.0 896.1L548.3 901.0L546.9 904.4L541.9 902.0L537.9 894.9L530.7 894.2L526.6 892.5L522.4 890.1L518.2 894.0L515.7 897.9L513.1 903.6L514.3 908.1L518.5 909.3L521.8 911.3L524.0 913.4L524.1 918.3L523.7 922.7L517.3 923.3L514.7 925.1L513.9 931.3L508.4 936.2L505.9 939.5L504.2 942.4L498.0 942.4L496.5 937.7L499.9 935.2L501.4 931.5L501.8 927.7L506.8 926.0L505.2 920.6L503.6 913.9L500.5 908.3L498.8 903.4L495.5 899.6L490.0 899.3L483.6 895.8L483.6 891.0L481.6 887.7L477.3 887.4L473.0 888.3L471.7 883.9L467.3 884.3L463.3 877.3L460.9 875.1L454.0 874.2L448.9 874.9L444.5 871.4L440.4 870.1L432.5 862.9L430.0 860.2L425.0 857.2L421.9 852.9L415.5 850.0L413.1 847.6L408.8 843.2L405.6 840.9L403.4 838.5L401.0 836.2L399.7 829.6L397.3 826.5L395.9 819.1L392.3 815.5L386.3 813.7L378.1 808.9L371.4 806.9L364.4 808.3L359.5 812.9L355.6 817.7L349.1 820.2L344.6 821.0L346.4 816.6L348.1 814.1L342.4 813.1L338.2 811.5L334.8 809.7L333.5 806.5L334.2 802.0L335.3 797.7L331.7 796.4L329.7 793.3L331.4 790.6L335.1 789.0L337.6 786.0L335.7 782.6L333.2 778.8L331.8 775.5L335.8 773.0ZM398.7 840.7L395.3 843.3L398.1 841.4ZM495.3 936.8L493.4 940.0L488.9 945.5L487.6 949.4L486.5 953.6L488.8 956.2L490.1 960.0L488.0 962.4L486.5 965.3L482.5 966.5L477.4 965.7L472.8 961.6L468.6 959.0L464.1 959.1L458.2 956.0L454.0 954.2L451.4 952.1L448.0 951.0L444.9 949.7L440.6 949.3L437.1 945.7L438.8 940.2L441.7 938.4L444.5 939.9L448.3 938.6L452.7 937.4L455.4 939.0L460.0 941.2L464.7 940.7L471.3 940.9L475.3 940.3L479.6 938.2L484.2 937.9L488.7 937.0L493.8 935.4ZM384.5 882.4L387.5 889.2L384.7 895.2L385.8 898.8L384.2 913.9L383.2 917.7L377.7 916.7L373.8 916.2L373.1 920.2L370.5 922.9L366.2 922.6L363.2 918.9L361.7 915.2L361.9 910.5L362.5 906.4L364.3 904.0L361.7 902.4L362.9 898.0L361.7 893.4L359.6 889.2L357.5 884.8L359.9 883.0L364.7 883.1L369.4 881.0L372.7 877.7L375.8 876.1L381.2 876.8L383.5 879.3Z"/><path d="M872.9 1030.2L872.3 1034.1L873.3 1038.2L871.9 1043.0L868.7 1043.9L867.6 1049.3L864.5 1047.5L860.9 1046.7L857.5 1050.4L856.5 1053.7L857.1 1058.3L859.6 1060.1L857.9 1062.7L856.0 1065.2L859.2 1068.4L862.4 1067.3L865.7 1066.3L864.7 1070.9L864.4 1075.5L862.8 1078.8L860.5 1083.9L859.7 1089.9L858.5 1093.8L857.7 1097.3L856.8 1101.5L853.4 1096.8L850.9 1089.9L848.5 1085.3L846.1 1078.3L844.8 1075.2L843.2 1071.3L845.2 1068.5L848.4 1065.4L851.3 1058.6L853.6 1053.0L855.8 1045.2L857.4 1041.2L859.3 1036.4L864.9 1036.6L867.2 1033.3L871.0 1031.7Z"/><path d="M847.5 1064.4L845.2 1068.5L843.2 1071.3L845.9 1066.2ZM867.6 1049.3L867.2 1054.7L867.7 1061.0L865.9 1064.8L862.4 1067.3L859.2 1068.4L854.9 1067.8L856.4 1064.0L860.1 1061.6L857.0 1060.1L856.7 1055.0L857.5 1050.4L860.9 1046.7L864.5 1047.5L867.6 1049.3Z"/><path d="M19.6 577.1L13.7 575.4L18.7 574.7ZM70.5 545.1L67.5 546.9L66.2 550.2L64.3 554.0L60.8 555.6L59.8 559.3L55.1 560.9L57.4 566.8L61.9 569.7L66.9 571.1L70.9 569.0L72.1 565.2L76.8 565.9L78.2 569.0L81.1 570.4L83.0 573.2L87.5 572.2L90.3 574.3L86.7 575.1L88.1 579.0L89.6 584.3L90.7 588.1L90.7 593.3L91.8 596.9L92.7 603.1L90.7 606.3L89.5 610.0L86.7 616.8L87.1 620.8L82.7 622.3L78.6 621.7L75.2 620.7L73.0 623.5L66.3 624.0L63.6 626.6L58.9 628.4L56.8 630.5L53.2 631.9L50.5 629.9L49.4 633.7L44.9 636.0L40.7 637.7L31.7 639.9L27.3 639.3L23.5 640.5L27.2 635.6L20.5 636.1L16.4 637.3L20.0 634.0L23.3 631.6L17.1 632.9L12.3 632.2L14.3 627.8L17.8 626.0L20.3 624.0L14.0 623.9L14.7 620.1L18.8 620.4L22.9 620.7L21.4 617.5L25.5 613.0L31.1 612.2L36.2 611.1L41.3 609.6L37.5 607.6L35.4 609.9L29.9 611.2L26.3 610.5L23.0 612.2L27.7 606.9L29.9 603.9L31.7 598.7L36.1 597.2L28.5 595.1L26.1 592.7L21.9 592.8L18.6 590.8L16.7 587.8L20.9 585.7L23.4 580.6L26.3 579.0L23.3 577.7L21.3 574.6L19.7 571.0L17.0 569.0L19.8 567.6L23.9 566.7L31.4 566.7L34.6 569.1L37.2 567.0L42.0 567.7L45.7 568.3L44.3 565.4L47.1 562.9L50.6 561.7L52.3 559.1L47.4 558.3L41.7 556.4L43.8 554.2L47.1 552.3L48.2 548.6L50.2 544.7L53.3 543.2L56.7 542.4L60.3 540.8L63.9 542.9L62.7 546.1L65.2 543.7L66.0 539.9L68.8 537.6L71.7 539.2L75.3 541.1L71.3 543.9Z"/><path d="M944.9 1055.9L938.7 1055.0L934.5 1054.3L937.3 1052.1L934.4 1050.5L931.5 1047.9L931.6 1043.4L930.2 1039.2L928.9 1035.2L927.6 1031.0L932.9 1028.3L936.8 1026.3L942.3 1023.5L947.7 1020.8Z"/><path d="M-84.7 183.0L-79.0 181.8L-74.0 177.9L-68.6 177.2L-72.9 180.8L-75.1 185.0L-76.7 187.9L-72.6 190.4L-68.9 191.1L-68.7 195.9L-71.6 200.3L-63.9 200.0L-62.4 203.1L-64.7 208.2L-61.5 206.2L-54.7 206.6L-51.9 209.8L-48.8 211.5L-49.7 214.9L-52.3 216.6L-49.5 219.0L-51.3 222.7L-48.1 224.5L-48.4 228.5L-53.2 230.1L-53.2 235.0L-55.0 237.9L-58.4 240.4L-63.1 239.3L-64.6 243.4L-64.8 248.5L-67.6 251.4L-70.6 252.7L-73.2 254.9L-79.3 255.7L-83.8 257.1L-90.1 260.1L-94.3 262.4L-97.6 265.1L-101.9 269.4L-105.1 271.3L-110.6 272.1L-123.6 275.5L-127.0 276.7L-128.9 279.4L-128.7 186.3L-123.6 191.9L-119.6 190.9L-114.7 184.0L-111.3 185.4L-107.1 186.8L-102.2 184.3L-101.2 181.1L-103.3 174.4L-97.8 171.4L-92.9 171.8L-90.4 175.0L-87.8 177.9L-86.6 181.8Z"/><path d="M617.5 715.6L620.5 717.4L622.9 719.4L625.9 722.0L629.6 722.9L631.0 726.1L627.6 729.9L622.8 730.7L619.6 732.3L617.1 735.2L614.9 739.3L612.6 741.4L611.0 745.3L608.7 747.5L607.3 751.3L605.3 754.2L603.1 757.2L601.1 760.3L599.5 763.3L597.1 765.8L591.9 765.8L589.2 768.3L583.0 768.3L576.5 767.7L570.5 767.5L567.6 769.4L564.3 771.3L560.0 771.7L556.0 773.4L551.0 775.6L547.1 776.9L539.8 776.5L535.0 775.3L531.7 772.7L527.6 771.4L524.6 768.2L520.7 765.6L517.1 761.9L513.8 760.3L511.0 757.5L509.1 753.5L504.9 751.6L507.9 749.1L511.6 748.3L511.0 743.3L511.4 739.2L514.8 738.1L511.2 733.2L513.5 731.1L517.1 732.5L521.3 732.3L522.4 729.0L524.6 725.0L530.8 727.8L533.7 729.6L539.5 730.6L549.3 730.4L554.0 730.2L555.2 725.2L564.0 723.4L567.8 722.6L569.6 720.1L574.2 721.5L580.1 719.9L583.9 718.2L586.6 713.5L589.7 712.2L593.9 712.3L597.6 713.2L603.5 712.1L606.9 713.4L608.9 716.2L617.1 715.9Z"/><path d="M589.1 933.5L590.7 936.3L592.3 939.4L587.5 939.1L584.3 937.6L585.8 934.1L588.2 931.7ZM594.3 945.1L590.8 946.3L593.4 944.4ZM590.5 929.0L588.8 926.0L591.0 928.4ZM591.9 934.6L589.3 931.6L591.5 933.9ZM579.2 912.3L575.6 911.7L571.2 906.3L574.7 904.4L575.9 908.5L578.2 912.1ZM641.4 921.9L643.4 924.9L650.0 927.4L654.1 927.8L656.0 930.4L656.4 934.4L659.0 938.0L663.2 938.7L661.6 941.8L658.2 940.0L655.8 937.1L653.5 934.5L650.2 933.2L645.8 932.3L643.9 929.5L640.4 926.5L636.3 924.2L631.4 924.2L636.4 921.0L641.4 921.9ZM648.2 918.8L644.7 916.9L648.2 918.8ZM664.8 925.0L660.9 923.4L664.8 925.0ZM666.7 888.0L661.9 887.3L663.9 884.3L666.9 886.1ZM634.6 977.0L631.9 974.4L635.4 975.9ZM711.5 991.0L709.5 988.5L711.1 984.8L712.1 989.2ZM708.5 961.9L706.1 959.3L708.9 961.0ZM707.2 966.4L709.3 964.2L713.1 962.9L711.0 965.4L707.2 966.4ZM681.1 961.7L677.7 959.7L680.7 957.2L681.8 960.3ZM704.9 945.0L708.9 945.8L705.3 948.3L701.0 947.0L703.4 945.0ZM690.1 950.6L693.5 948.4L690.1 950.6ZM686.9 965.2L689.6 962.3L686.9 965.2ZM698.1 969.2L694.6 970.0L697.4 968.5ZM662.3 965.7L658.3 967.8L660.9 966.0ZM670.8 946.0L667.2 944.7L665.3 942.0L670.1 943.1ZM675.7 949.2L671.2 948.3L675.1 948.6ZM691.3 936.9L687.5 936.4L688.8 932.9L686.7 929.7L691.6 930.3L692.5 935.2ZM697.2 914.4L699.4 917.6L698.3 921.7L692.5 920.6L694.1 917.8L690.9 919.2L686.9 917.5L690.0 915.3L692.6 913.5L697.2 914.4ZM683.7 891.9L679.3 890.7L683.3 891.1ZM679.1 901.0L677.6 904.6L675.1 902.9L671.9 901.2L676.2 901.6L679.3 900.0ZM723.9 982.0L722.3 979.3L723.4 975.3L730.0 972.3L729.5 976.6L726.2 979.7L723.9 982.0ZM649.5 989.7L654.0 988.5L657.0 991.0L660.6 992.9L664.0 992.1L671.0 992.1L676.4 993.5L681.5 993.7L684.6 996.5L690.1 995.9L694.9 994.0L694.3 998.2L690.4 999.7L686.4 999.5L682.3 999.9L674.7 1000.8L667.2 1001.3L665.5 998.3L660.9 996.9L652.2 995.7L646.8 995.5L643.8 992.0L646.2 990.1ZM695.5 865.0L698.8 866.7L700.9 869.3L699.5 872.8L695.7 875.0L696.1 879.2L694.0 882.4L691.6 885.2L686.9 883.2L680.2 882.3L677.0 881.2L672.9 880.1L667.1 883.0L662.6 881.3L656.6 884.4L651.3 885.2L647.5 886.7L650.0 889.5L652.8 892.3L656.2 893.9L658.7 897.7L655.2 894.9L650.7 893.3L647.1 894.8L650.7 897.5L652.3 900.2L646.0 896.1L641.6 895.3L642.3 899.2L646.2 901.5L641.0 900.9L639.5 896.2L635.5 894.4L631.7 892.4L632.2 888.5L628.8 889.6L626.6 891.9L625.6 898.2L630.6 904.8L632.1 908.3L635.6 911.1L638.0 913.8L639.7 917.6L636.5 919.0L633.5 914.4L630.6 915.9L632.5 918.8L630.0 923.1L625.6 923.8L629.4 925.1L634.0 926.3L638.4 927.9L640.5 930.7L644.3 931.4L646.4 934.2L651.7 935.7L652.9 942.1L653.3 947.0L650.0 945.7L647.3 943.5L644.5 941.0L637.2 942.0L634.3 943.6L636.4 946.9L638.5 949.3L642.2 951.2L638.3 953.6L633.9 951.5L629.4 949.5L630.9 955.3L633.5 960.8L634.8 964.0L634.4 968.1L636.6 971.9L633.3 970.3L630.5 967.2L628.4 965.1L624.1 969.6L622.0 966.9L619.3 963.4L616.5 960.5L613.9 963.2L610.1 963.8L607.2 959.5L609.3 955.0L607.0 950.4L604.1 948.4L601.7 945.7L598.9 944.1L602.1 940.7L603.9 937.3L608.6 937.7L611.7 934.6L619.5 937.4L625.4 939.0L628.3 940.3L632.2 942.1L635.9 939.8L634.3 937.2L630.5 936.5L625.9 934.3L622.9 932.4L619.2 934.2L614.4 933.0L609.7 934.1L605.2 934.8L603.0 931.7L599.8 934.3L597.5 931.1L596.2 928.1L594.0 925.6L592.2 922.6L597.7 923.4L594.9 920.4L590.6 919.7L586.5 915.9L583.3 914.5L581.3 910.0L577.8 906.7L581.6 907.8L583.2 905.2L583.5 901.1L586.2 899.3L590.0 898.3L591.1 894.7L592.7 891.5L596.4 889.1L595.5 884.7L598.2 883.0L602.4 882.8L607.1 882.7L610.9 881.0L613.7 877.7L617.6 877.0L622.5 877.4L628.5 876.3L629.6 873.0L634.1 873.2L638.1 871.9L643.6 871.9L647.8 871.3L651.8 870.5L656.6 868.9L661.4 868.4L663.4 870.7L666.7 872.5L670.8 872.3L675.6 874.9L680.7 873.7L685.5 873.1L690.8 872.6L692.2 869.1L690.8 865.9L695.5 865.0Z"/><path d="M381.7 841.8L381.5 845.9L383.1 855.5L380.7 859.5L380.1 864.6L377.5 870.4L372.8 870.0L369.8 868.3L368.5 864.5L367.9 860.5L367.2 856.9L364.6 854.3L366.0 849.9L369.3 846.0L373.5 844.9L376.4 843.4L378.9 838.8L381.6 840.6ZM346.9 734.7L344.2 736.7L340.4 738.6L336.5 737.1L333.6 739.3L332.1 744.7L329.6 747.1L325.3 749.7L324.5 754.1L319.8 757.4L318.1 760.9L318.6 765.0L316.3 767.9L320.5 767.0L322.8 762.4L327.6 761.4L331.3 762.1L331.2 767.6L333.5 770.2L335.8 773.0L331.8 775.5L333.2 778.8L335.7 782.6L338.3 784.9L336.9 788.5L332.5 790.8L328.5 791.2L330.3 794.4L333.4 796.9L336.0 800.1L333.1 803.5L333.6 808.5L338.2 811.5L341.4 812.9L346.6 812.2L346.4 816.6L344.4 818.8L342.5 821.3L338.8 823.3L332.9 828.1L329.6 830.4L327.4 833.3L322.5 834.6L319.0 836.0L313.3 835.5L310.7 833.8L305.8 832.7L301.9 830.0L299.3 828.0L295.3 829.1L287.2 827.9L282.6 826.7L277.9 825.4L275.5 827.6L265.7 833.4L263.9 835.9L261.9 839.4L262.6 846.4L264.6 849.2L260.4 849.0L256.2 850.2L252.9 851.6L249.3 850.7L244.1 850.8L239.7 849.2L237.4 847.1L234.2 845.4L230.1 844.2L225.7 843.1L219.2 841.1L217.0 844.0L212.0 844.0L204.2 844.3L201.2 842.2L196.0 841.9L191.2 839.5L187.6 838.7L183.1 837.1L180.4 835.5L178.7 832.4L174.7 831.5L171.6 829.6L174.6 828.1L177.3 825.4L179.9 815.4L181.8 803.6L184.9 800.7L182.8 790.2L183.6 786.2L184.9 781.9L187.4 783.6L190.7 786.8L192.1 791.7L194.8 793.8L191.3 785.2L188.6 781.8L183.2 778.4L185.6 776.5L184.4 773.0L183.8 766.7L181.9 764.0L171.7 759.6L169.2 755.7L166.6 752.8L167.4 747.6L165.1 745.6L167.2 742.1L171.1 743.3L168.2 741.3L161.1 742.0L157.8 739.6L155.3 736.3L153.1 733.9L147.9 734.0L145.0 732.3L140.8 731.9L132.3 729.0L126.2 729.6L123.5 728.0L117.8 724.2L120.9 722.9L124.3 721.2L120.9 719.7L126.0 718.0L123.1 716.5L117.0 716.6L117.0 712.4L120.6 710.5L129.4 708.4L135.8 708.3L138.9 707.0L144.8 705.2L149.0 706.4L153.0 710.9L159.4 709.8L166.2 709.9L169.5 708.6L178.2 710.0L175.8 706.1L175.5 696.5L173.5 693.9L171.2 689.6L170.0 686.1L173.2 684.9L179.5 684.3L181.4 687.0L182.7 690.7L187.1 691.9L190.7 692.7L195.3 692.9L202.0 694.3L207.5 691.7L212.8 690.6L207.4 689.1L208.5 684.4L216.5 680.5L222.2 679.3L228.2 677.2L231.2 675.0L233.2 672.1L234.4 658.9L236.2 655.3L240.6 652.6L250.6 650.7L253.0 652.7L254.7 657.1L257.9 659.6L261.3 658.2L265.3 660.8L266.8 664.7L272.0 665.4L273.3 669.2L278.6 668.9L282.8 671.1L283.0 675.9L286.4 678.5L291.8 677.1L293.9 673.7L294.3 678.1L295.7 682.3L299.3 683.1L302.2 684.7L304.8 686.4L307.6 689.1L311.4 688.4L315.0 689.6L320.2 689.4L323.9 690.4L326.8 691.9L330.5 697.5L334.7 696.7L337.6 698.3L343.0 697.7L346.8 699.9L354.1 701.1L356.7 704.1L352.7 708.6L350.3 712.2L348.6 718.6L346.9 721.5L346.5 727.4L345.3 732.8ZM183.0 773.5L179.5 772.1L183.0 773.5Z"/><path d="M577.5 389.7L580.9 390.9L581.4 394.7L578.3 396.0L574.0 398.3L571.6 393.5L575.3 392.4L573.8 389.6Z"/><path d="M714.7 475.9L708.8 474.4L704.8 474.1L699.5 475.8L695.1 473.8L690.1 468.4L685.7 465.9L681.6 463.7L677.2 460.8L673.0 460.1L669.3 461.9L660.8 464.7L660.9 458.8L661.4 454.2L659.6 450.5L656.7 453.4L652.5 452.8L647.9 451.2L646.5 446.9L644.1 444.7L643.5 440.5L646.3 438.3L642.9 437.4L641.7 434.3L642.6 429.7L645.6 424.4L653.8 422.9L655.5 420.3L659.4 417.3L663.1 417.8L668.6 415.8L679.2 415.8L680.4 412.1L685.7 412.3L698.1 414.8L705.4 417.3L714.4 418.0L724.8 419.1L727.1 416.9L729.3 419.5L727.1 422.6L724.0 426.0L722.3 430.3L719.8 433.5L716.8 436.7L718.1 449.0L717.3 453.9L718.8 457.9L720.2 461.6L721.6 464.8L718.3 467.9L715.6 471.9L714.8 475.3ZM626.5 443.4L633.0 443.8L639.1 447.5L636.0 449.0L633.3 451.1L629.1 454.2L624.3 455.0L620.0 457.2L617.8 463.0L617.9 458.6L615.6 455.6L612.8 454.2L614.7 450.4L612.4 447.1L616.5 447.7L620.0 446.8L623.8 443.9ZM632.2 437.1L627.3 440.7L623.9 439.4L622.7 436.0L618.0 435.0L623.6 432.6L625.9 429.4L628.5 431.4L633.3 434.3ZM640.0 445.5L634.8 443.7L639.8 442.5Z"/><path d="M670.5 1128.4L670.5 1120.3L670.5 1112.3L670.4 1107.5L668.4 1101.2L667.4 1096.9L665.5 1091.0L668.6 1085.1L670.2 1081.0L669.6 1076.5L668.3 1071.5L669.6 1067.3L672.0 1064.7L678.0 1065.7L687.6 1063.7L698.1 1065.7L703.9 1066.5L712.8 1068.2L718.2 1071.2L723.6 1071.5L726.2 1073.3L736.4 1074.2L741.9 1076.2L744.9 1077.8L750.7 1077.6L756.5 1074.9L762.8 1070.9L766.5 1070.4L769.9 1068.6L774.7 1066.4L781.3 1064.7L774.6 1067.5L779.8 1067.0L783.3 1065.8L786.3 1064.3L792.5 1066.7L798.4 1065.4L803.9 1068.9L799.4 1066.2L797.1 1069.7L801.5 1071.1L805.2 1072.9L807.4 1070.4L811.3 1073.3L817.3 1073.0L822.4 1072.0L827.0 1072.7L832.4 1072.7L836.8 1071.8L841.9 1069.5L844.8 1075.2L846.1 1078.3L847.8 1082.5L850.9 1089.9L852.3 1093.7L854.8 1101.3L852.4 1106.6L850.1 1115.9L847.0 1123.0L846.6 1127.5L834.2 1128.6L831.1 1124.9L827.8 1122.5L824.6 1119.3L823.8 1115.5L822.4 1111.9L817.6 1106.3L815.7 1103.4L813.4 1097.1L811.9 1093.9L809.0 1098.0L811.9 1104.5L813.3 1108.2L813.6 1112.8L816.0 1115.3L818.1 1119.3L820.4 1121.5L823.8 1125.7L826.9 1128.5Z"/><path d="M81.6 342.3L77.5 341.2L81.5 341.6ZM80.1 354.3L76.6 351.3L80.1 352.6ZM71.1 331.2L73.3 333.4L69.8 334.3L66.7 331.1L71.1 331.2ZM81.4 328.2L81.0 332.7L77.8 331.2L79.7 336.2L74.3 332.7L71.3 326.2L75.3 325.2L78.2 326.9L81.4 328.2ZM85.6 327.1L83.4 329.2L82.8 323.8L85.6 327.1Z"/><path d="M439.2 525.9L438.1 530.0L434.6 531.4L432.6 534.8L435.8 537.0L434.6 541.1L430.3 542.5L430.0 548.3L429.6 552.7L426.1 553.9L423.8 550.0L423.0 545.0L418.9 541.8L413.2 538.6L412.4 532.9L410.2 529.8L414.2 527.4L418.6 523.2L421.7 521.1L422.7 524.6L424.6 528.2L426.5 525.2L426.1 520.7L429.4 518.4L432.7 516.5L436.6 516.9L440.0 518.9L438.4 522.1L439.2 525.9ZM386.5 552.4L382.0 552.0L377.5 552.9L370.9 550.5L366.6 550.3L366.0 546.4L366.2 538.6L360.5 533.5L356.6 531.0L357.5 522.6L356.4 515.9L356.5 510.8L357.1 502.6L362.9 503.8L366.6 505.8L367.8 502.0L370.6 498.9L374.0 497.3L376.4 499.9L377.5 491.0L372.6 490.8L370.4 494.6L368.5 499.2L362.8 501.0L359.1 498.4L362.0 491.8L365.6 488.1L371.8 486.9L378.3 487.1L383.1 484.6L387.9 477.4L390.7 474.4L396.2 473.3L401.3 469.8L399.9 473.4L401.4 478.3L401.1 484.3L397.7 490.7L396.7 496.4L396.6 502.2L400.5 505.1L407.1 505.0L408.0 509.7L405.4 513.0L401.4 514.2L399.3 512.0L395.6 519.7L394.8 523.6L389.6 524.3L391.8 526.5L387.8 529.6L385.1 532.2L384.4 536.2L385.2 540.3L382.1 544.4L384.8 547.0L386.5 552.4ZM403.4 530.8L405.1 535.3L406.6 538.8L406.0 544.0L403.0 546.2L396.1 545.2L391.2 543.2L388.7 537.8L388.8 533.4L396.7 530.7L400.8 532.2ZM416.7 550.6L420.0 552.3L423.8 552.9L422.7 557.1L418.5 557.8L410.7 553.9L411.1 549.3L416.7 550.6ZM405.0 554.5L402.9 551.7L405.1 548.7L407.3 546.2L409.1 543.3L405.6 553.1ZM438.9 548.6L432.1 550.6L433.5 547.1L438.2 547.7ZM400.4 551.8L395.4 549.3L399.1 550.5ZM392.5 550.8L387.8 550.2L387.1 546.0L391.3 548.0ZM402.7 525.9L401.5 522.5L402.7 525.9ZM411.0 484.0L413.3 481.9L411.0 484.0ZM486.2 547.0L478.7 544.8L479.2 541.1L487.0 543.7L486.2 547.0Z"/><path d="M838.7 998.7L834.8 999.1L829.8 999.3L827.2 996.9L821.4 997.2L817.6 998.3L814.6 996.7L818.6 994.6L822.3 993.1L828.6 993.5L839.8 990.9L843.7 989.0L849.0 987.2L837.6 994.4L838.7 998.7Z"/><path d="M814.6 996.7L817.6 998.3L821.4 997.2L826.1 997.0L828.6 999.9L833.5 999.3L836.8 998.4L839.6 1000.2L835.3 1000.7L829.6 1003.7L825.5 1005.4L821.2 1006.2L815.3 1006.8L810.8 1005.6L807.3 1000.9L810.2 998.3L813.5 996.5Z"/><path d="M727.1 859.6L723.1 859.9L719.0 860.4L714.9 858.4L711.8 857.3L707.6 858.4L704.5 859.5L700.3 860.1L696.3 863.2L691.5 864.8L692.2 869.1L690.8 872.6L685.5 873.1L680.7 873.7L675.6 874.9L670.8 872.3L666.7 872.5L663.4 870.7L661.4 868.4L657.7 869.0L653.3 868.9L650.1 870.4L645.5 871.9L640.6 871.8L636.5 873.2L632.1 872.9L632.7 867.3L631.9 862.4L630.6 859.1L627.7 857.7L624.3 855.5L621.4 852.3L624.8 849.6L623.1 845.6L623.7 841.0L628.2 840.1L631.0 837.2L633.0 834.5L631.0 832.2L628.0 829.2L624.3 826.4L623.1 823.2L621.8 818.9L622.8 815.7L626.1 814.2L627.4 811.1L632.6 813.1L631.2 817.0L637.8 818.7L643.6 819.1L651.4 820.6L656.5 821.1L660.3 820.4L667.3 821.6L673.9 822.7L680.2 823.1L683.7 822.2L688.3 818.7L693.6 815.7L698.7 814.1L705.3 812.7L709.8 812.2L716.1 815.4L720.7 815.9L724.7 816.2L727.8 819.8L731.0 820.9L734.7 821.6L737.3 826.8L735.5 829.2L729.3 829.1L727.5 831.8L724.9 837.2L724.7 843.0L717.2 849.0L720.1 850.4L723.5 854.5L726.5 858.0Z"/><path d="M283.8 642.7L287.8 640.8L291.4 641.8L294.2 640.4L297.1 642.1L300.0 643.7L304.0 645.9L308.3 646.4L312.2 648.1L312.2 652.7L310.2 655.7L312.1 658.4L316.7 658.6L319.7 661.4L320.6 664.9L323.2 667.3L320.1 671.4L316.4 673.0L313.4 676.8L311.9 680.2L313.2 683.7L313.8 687.4L309.6 688.7L304.8 686.4L302.2 684.7L299.3 683.1L295.7 682.3L294.3 678.1L295.6 673.8L292.1 676.0L289.7 678.1L282.8 678.1L282.5 674.0L280.4 669.3L275.6 668.6L272.6 665.9L266.8 664.7L265.3 660.8L262.9 657.9L259.5 659.2L254.7 657.1L253.5 653.5L252.1 650.0L260.2 645.7L265.1 643.6L268.0 645.1L273.6 645.5L276.4 647.1L280.3 646.2L283.5 643.6Z"/><path d="M797.0 624.5L789.2 624.4L785.9 625.5L779.9 628.3L776.5 631.8L775.0 635.0L774.5 639.0L775.9 643.5L772.5 645.5L769.8 642.4L767.1 640.4L762.4 640.9L758.6 641.3L754.2 642.1L749.7 639.9L748.0 636.8L744.1 638.2L740.4 641.5L738.0 638.7L732.3 637.7L728.3 638.2L724.2 637.5L722.0 640.3L719.4 637.2L714.7 637.4L710.8 633.4L704.0 632.9L700.1 632.2L696.9 631.1L688.2 629.3L681.7 629.0L675.9 628.7L670.4 629.4L665.0 630.0L659.0 630.5L654.6 635.6L651.9 637.5L648.4 636.3L645.1 639.2L643.8 634.5L645.0 630.2L645.8 626.1L643.0 623.5L639.7 621.8L636.9 619.7L639.3 616.1L641.3 613.8L649.4 610.0L650.7 606.0L650.2 600.5L648.3 594.1L644.8 585.4L642.7 576.4L647.3 577.1L651.2 576.4L655.8 576.1L661.2 576.6L666.6 575.4L667.7 571.6L671.8 571.2L674.3 569.0L677.8 568.0L680.2 570.1L683.6 571.0L684.9 567.8L681.3 566.4L682.5 562.4L684.4 559.5L684.4 555.4L685.5 552.2L688.9 549.1L692.8 547.6L694.2 544.2L700.7 544.1L703.2 540.8L698.8 538.9L700.1 532.5L701.1 528.8L704.9 528.0L707.3 525.1L713.9 525.3L718.9 525.5L720.2 522.3L724.9 517.7L729.0 515.7L732.1 518.3L737.3 517.2L739.7 519.8L744.5 519.8L750.7 520.7L752.9 523.2L753.2 527.6L757.2 526.8L760.8 525.6L764.9 524.4L772.6 525.8L775.0 528.2L777.5 530.4L781.0 531.9L780.9 536.7L779.3 540.0L782.0 543.9L780.2 549.3L778.8 553.0L782.4 556.0L785.6 557.9L784.3 560.8L787.3 564.2L790.2 569.5L794.4 571.8L797.5 573.3L797.3 578.6L801.2 580.2L805.1 580.6L809.8 583.0L810.1 586.8L814.1 589.4L812.1 593.0L809.3 595.7L806.0 597.9L802.4 598.9L798.6 598.4L795.2 596.0L790.5 596.1L788.4 599.6L789.3 603.0L792.7 606.5L792.5 610.8L793.5 616.2L794.8 620.4L796.9 623.9Z"/><path d="M236.8 848.3L233.6 849.6L231.4 847.3L234.2 845.4L237.4 846.7Z"/><path d="M364.8 962.3L363.5 965.3L361.0 968.3L358.4 970.0L360.3 972.5L359.8 977.0L358.7 983.2L360.0 987.4L360.0 992.2L361.4 996.1L359.3 1000.4L358.7 1005.1L356.4 1008.4L353.1 1010.2L349.4 1014.3L345.8 1016.7L344.8 1022.3L347.1 1027.7L348.7 1031.2L351.8 1034.8L355.5 1036.3L358.0 1039.4L359.8 1043.7L363.7 1048.8L366.8 1050.9L369.8 1052.7L373.1 1054.7L374.6 1059.5L375.7 1063.7L376.9 1068.3L378.1 1072.8L379.5 1078.2L381.3 1084.9L382.4 1089.2L378.5 1091.3L382.9 1097.1L384.7 1100.0L386.6 1104.8L387.7 1108.3L388.4 1112.1L387.9 1119.4L388.7 1128.6L43.2 1127.4L43.2 1121.0L43.6 1116.6L48.5 1113.7L51.0 1111.8L55.9 1109.1L61.8 1105.2L65.5 1104.4L68.0 1102.6L71.6 1100.4L77.2 1100.6L81.3 1101.2L83.7 1098.4L86.5 1096.9L93.1 1096.5L97.4 1095.8L100.8 1094.9L106.3 1092.3L110.7 1087.5L112.4 1084.9L115.9 1083.3L120.6 1082.0L124.4 1080.7L127.7 1078.6L130.7 1076.7L136.0 1076.1L134.7 1072.2L134.2 1067.1L133.3 1063.7L136.0 1062.2L140.9 1062.1L148.8 1059.7L150.4 1055.9L154.3 1054.9L158.0 1054.3L163.4 1054.4L171.1 1054.7L177.5 1054.9L182.2 1054.7L181.9 1050.4L185.1 1047.9L182.9 1045.3L179.8 1043.6L176.9 1040.3L176.1 1036.6L173.7 1032.0L174.6 1027.3L173.1 1023.2L173.5 1019.3L171.6 1012.1L170.5 1007.5L169.2 1003.2L165.3 1000.6L163.6 998.0L169.3 998.2L173.8 996.5L177.3 994.2L182.5 990.4L187.9 987.1L197.1 983.4L201.5 984.2L205.9 982.6L207.8 979.4L210.8 977.5L214.6 975.6L219.7 973.7L223.1 972.0L228.4 970.5L241.8 969.6L248.7 968.7L253.3 968.9L258.0 966.2L270.6 965.1L275.4 963.1L293.7 963.1L298.1 964.8L301.8 967.4L306.1 967.5L311.7 965.0L318.0 963.7L321.5 962.3L325.9 959.4L334.1 962.7L338.1 962.2L343.5 959.9L346.8 961.1L350.2 963.4L356.5 962.8L364.8 962.3Z"/><path d="M565.5 861.7L565.8 857.5L565.2 853.7L567.8 850.1L570.2 846.9L573.2 848.4L578.6 847.3L581.2 849.9L584.2 852.4L586.8 854.2L588.5 858.7L587.1 865.2L586.1 869.1L586.8 873.0L588.3 877.3L590.9 881.5L595.1 882.0L596.1 885.9L595.4 890.5L592.1 892.6L590.7 895.6L589.0 899.0L585.3 899.7L584.1 902.9L582.8 906.8L578.1 906.6L577.1 903.3L575.0 899.8L568.1 896.4L565.8 893.5L565.5 887.8L566.2 884.3L567.7 881.4L568.0 875.0L567.3 871.1L569.3 867.5L569.9 863.5L565.5 861.7Z"/></g><g class="k-geplant"><path d="M625.0 699.7L624.0 701.8L623.1 703.0L622.3 704.4L621.2 707.5L620.5 708.9L617.7 711.7L617.5 715.6L610.7 717.2L608.9 716.2L607.6 714.2L605.8 712.8L603.5 712.1L600.0 713.1L597.6 713.2L596.0 712.9L593.9 712.3L589.7 712.2L586.9 712.7L583.9 718.2L580.1 719.9L576.8 721.7L574.2 721.5L572.3 720.5L570.7 719.9L568.4 721.3L564.0 723.4L557.5 724.0L555.2 725.2L554.4 726.6L555.0 728.6L554.0 730.2L549.3 730.4L543.2 730.7L539.5 730.6L536.0 730.6L533.7 729.6L530.8 727.8L527.7 725.4L525.1 724.9L523.4 724.2L521.3 720.5L519.3 716.0L520.0 713.3L520.8 712.1L521.5 709.1L523.0 706.6L524.3 705.2L527.4 705.2L530.8 705.5L533.5 705.2L536.0 704.1L537.3 703.1L538.5 702.1L539.3 701.1L541.4 700.5L542.3 698.5L542.9 696.0L547.3 693.3L548.2 692.0L549.3 691.2L550.4 690.2L551.6 689.5L554.4 689.5L556.0 689.1L557.9 689.4L558.5 691.9L561.9 691.8L563.8 689.1L566.3 687.8L567.3 687.0L569.1 689.2L570.1 690.6L571.5 691.9L573.5 692.4L573.8 694.9L573.2 696.5L575.3 696.5L578.8 697.0L579.7 694.9L580.8 693.8L582.1 693.3L583.4 692.6L585.3 692.1L587.7 692.2L591.3 692.5L592.6 693.5L595.4 693.8L597.8 691.3L600.6 691.0L602.9 691.1L608.3 691.5L609.6 692.2L613.0 693.1L614.4 694.2L615.0 695.5L618.8 697.7L623.8 699.4Z"></path><path d="M512.8 760.0L511.2 759.4L509.2 759.2L507.6 760.3L507.9 762.5L505.2 762.7L503.2 764.4L501.9 765.0L500.3 765.5L497.7 766.5L495.9 767.4L497.0 770.2L497.0 773.5L496.2 775.1L493.0 775.9L489.7 777.4L491.1 779.0L490.0 780.1L490.6 782.6L489.1 783.9L486.6 783.7L483.7 782.6L481.7 783.4L479.6 782.4L478.0 781.0L476.9 779.2L475.3 780.5L473.9 782.5L471.2 782.9L468.9 783.0L465.8 782.4L464.7 783.8L458.7 783.2L460.7 780.7L463.0 780.5L462.8 778.6L460.7 776.7L458.1 775.6L458.7 772.2L456.8 771.9L456.3 770.5L457.5 769.3L458.8 768.3L457.4 766.9L455.7 766.3L454.3 765.4L456.2 763.0L457.8 761.9L459.1 761.1L460.3 759.5L462.8 759.7L464.6 760.0L466.3 760.4L467.8 760.8L470.9 761.3L473.7 761.6L475.3 761.9L477.0 761.4L478.6 760.8L480.0 760.0L481.0 758.9L482.6 757.5L484.6 757.1L488.6 756.7L492.7 757.0L494.7 756.4L496.3 755.4L498.7 755.1L502.4 755.9L502.8 753.0L503.9 752.0L508.5 751.8L509.1 753.5L510.0 755.3L511.0 757.5L512.6 759.5Z"></path><path d="M556.0 689.1L554.4 689.5L551.6 689.5L550.4 690.2L549.3 691.2L548.2 692.0L547.3 693.3L543.5 695.2L542.5 697.1L542.1 699.8L539.3 701.1L538.5 702.1L537.3 703.1L536.0 704.1L533.5 705.2L530.8 705.5L527.4 705.2L525.3 704.7L523.0 706.6L521.5 709.1L520.9 711.0L519.7 708.5L517.4 708.1L514.4 706.6L512.1 706.2L510.9 706.9L507.3 707.6L504.2 707.3L499.9 704.6L497.6 704.7L495.7 704.1L492.1 702.4L490.3 702.0L488.3 702.6L485.8 701.5L484.0 701.8L483.6 705.5L483.1 706.9L481.2 706.8L479.1 709.2L478.8 711.0L476.2 710.6L473.9 710.6L472.8 711.5L469.4 711.5L466.8 710.9L465.7 708.8L464.5 707.9L463.0 707.1L461.6 705.8L460.0 704.4L457.5 702.4L455.5 702.5L454.4 701.2L453.6 699.9L452.7 699.1L449.9 697.6L447.7 695.1L445.7 693.4L443.8 693.5L442.6 692.6L441.3 691.4L440.4 690.3L439.0 687.5L438.0 685.9L436.2 684.2L437.0 682.0L437.9 680.7L437.2 678.2L435.8 677.2L433.8 676.1L432.5 674.8L431.9 672.8L431.0 671.9L430.3 670.6L431.1 669.5L432.9 671.1L433.8 672.7L435.3 670.4L437.1 668.6L438.9 667.5L441.8 667.1L444.8 666.8L446.7 666.9L447.6 665.1L450.6 664.6L451.7 662.9L453.6 662.1L455.4 662.3L457.1 660.1L460.3 659.5L464.0 658.4L465.9 657.4L467.7 656.8L469.7 655.9L472.8 654.9L471.5 653.6L470.7 652.3L471.9 651.4L475.4 652.1L476.3 653.5L477.5 654.5L478.2 656.6L480.2 656.9L481.0 655.9L484.2 655.2L484.3 652.3L486.9 652.6L489.4 653.4L489.7 655.3L491.2 657.1L493.2 657.5L496.5 658.7L498.2 658.9L499.8 659.7L501.2 660.5L502.7 661.5L504.4 661.6L508.4 661.0L509.9 661.8L510.9 662.7L510.2 664.4L508.4 665.3L507.1 666.7L508.6 668.0L512.3 671.1L514.3 674.2L515.8 674.8L517.7 673.3L518.9 672.6L521.6 671.3L520.2 668.7L519.4 667.0L521.5 666.9L524.7 667.8L529.6 670.9L532.2 670.7L534.0 670.2L535.5 671.5L532.8 673.3L534.5 674.7L535.7 675.8L536.6 677.0L538.1 677.8L540.2 677.2L541.4 676.4L542.3 677.3L544.3 678.0L545.4 678.9L550.1 679.5L551.2 681.0L551.5 683.1L555.5 686.6L555.9 688.4Z"></path><path d="M458.0 782.3L463.6 784.2L465.4 783.0L467.5 783.1L471.2 782.9L473.9 782.5L475.3 780.5L476.5 779.1L477.3 780.2L479.6 782.4L481.7 783.4L483.7 782.6L486.6 783.7L489.1 783.9L490.9 783.4L490.0 781.7L491.2 779.4L489.6 777.7L493.0 775.9L496.2 775.1L497.0 773.5L497.1 771.7L495.7 768.9L496.4 766.8L499.2 766.0L501.9 765.0L503.2 764.4L504.4 762.9L507.4 762.9L507.6 760.3L508.8 759.5L511.2 759.4L512.8 760.0L517.1 761.9L519.4 763.6L520.7 765.6L522.4 767.1L524.6 768.2L526.3 769.6L527.6 771.4L529.4 772.5L531.7 772.7L533.1 773.3L535.0 775.3L536.9 776.1L539.8 776.5L545.4 776.7L547.1 776.9L550.4 776.0L552.9 773.4L556.0 773.4L557.3 772.9L556.1 775.1L557.1 776.6L558.1 779.1L558.2 781.3L560.1 782.0L559.2 783.4L560.8 786.3L564.2 787.6L565.7 788.3L566.6 789.6L564.7 790.1L562.9 790.1L561.6 789.4L560.3 790.8L561.0 794.4L560.2 795.8L559.2 796.7L556.0 796.4L555.0 795.0L554.4 793.2L552.8 792.1L549.6 791.9L547.1 791.1L544.5 790.9L543.0 791.2L540.4 790.7L538.1 792.1L534.7 790.3L532.0 791.1L527.9 790.2L525.7 790.3L524.2 790.0L520.3 787.6L517.9 789.4L513.1 789.0L511.6 790.2L510.0 792.5L508.6 793.6L506.1 792.2L503.7 789.6L501.1 789.0L499.2 789.8L498.7 793.6L498.3 797.0L498.3 799.0L500.9 800.9L504.1 804.1L505.6 805.5L506.3 808.2L507.2 811.2L508.8 813.2L510.2 814.6L512.0 815.8L514.2 817.8L516.0 819.9L520.0 823.6L523.4 826.4L526.4 827.4L526.9 830.2L529.3 833.3L533.5 836.7L534.1 838.0L532.7 838.9L528.0 835.1L524.2 833.0L520.0 829.1L514.4 827.6L510.5 825.8L508.2 826.1L505.6 826.7L502.9 826.4L502.1 825.3L502.1 823.4L499.8 821.7L496.8 820.0L493.9 817.9L488.0 812.1L486.8 810.3L488.9 809.9L491.4 809.5L493.3 809.9L491.7 808.7L489.6 807.5L484.2 802.6L482.6 800.3L482.4 797.9L482.8 794.5L481.8 792.0L477.7 788.8L476.2 787.2L473.1 786.2L470.9 787.5L470.3 790.3L467.6 793.9L466.7 795.4L465.3 797.5L463.3 797.4L461.1 794.0L459.0 791.4L458.5 788.7L456.9 783.0L458.0 782.3ZM515.3 837.7L518.8 838.3L521.3 838.0L523.6 838.4L525.0 839.1L523.5 839.4L521.4 839.2L519.0 839.8L517.0 839.5L515.6 838.5ZM525.4 834.9L515.8 834.9L513.4 834.5L510.7 833.3L512.9 832.7L515.4 833.0L523.0 834.5L525.4 834.9ZM517.8 831.8L514.9 831.8L512.3 831.4L511.1 830.8L511.5 829.2L514.4 829.4L518.7 830.0L519.8 830.8L517.8 831.8ZM488.9 814.5L486.8 813.8L485.9 812.9L488.9 814.5ZM481.0 794.3L478.7 794.8L477.6 793.9L475.4 793.0L474.3 792.0L475.7 790.5L476.6 788.8L477.6 789.8L479.0 791.8L481.0 794.3ZM481.4 799.2L478.5 798.9L478.8 797.2L480.1 797.8L481.4 799.2ZM488.1 808.5L486.4 808.0L485.3 807.3L482.9 805.2L482.4 803.9L480.1 801.3L481.9 802.3L484.7 804.1L486.7 806.3L489.0 808.2ZM488.1 817.6L482.5 813.1L488.1 817.6ZM491.5 816.5L492.7 818.1L490.3 816.8L489.6 815.7L491.5 816.5ZM475.0 801.4L473.2 799.2L471.7 796.0L472.3 794.3L471.2 790.6L472.6 790.1L472.8 792.0L474.6 794.5L474.3 796.7L474.6 799.9L475.0 801.4ZM533.1 842.6L535.7 844.0L528.2 842.1L529.9 841.9L533.1 842.6ZM548.6 847.0L549.3 848.7L546.7 847.7L543.4 845.5L537.2 842.0L532.7 841.1L526.6 838.3L522.7 837.3L525.9 837.0L535.3 840.8L534.3 839.8L536.8 839.7L537.5 840.9L538.9 841.7L541.3 843.2L542.8 844.2L546.1 846.2L548.6 847.0Z"></path></g><g class="k-aktiv"><path d="M644.9 639.4L645.9 641.1L646.3 642.5L645.9 643.5L646.9 645.7L649.7 649.2L651.1 652.6L652.0 653.9L654.1 655.6L653.4 656.9L652.2 657.2L652.4 658.4L653.1 659.3L654.0 661.9L653.9 664.1L652.4 665.9L651.8 667.1L646.9 667.9L645.7 669.1L643.1 671.5L641.3 672.9L638.6 675.4L634.3 679.6L632.7 681.4L631.6 682.9L628.2 686.8L627.1 688.4L627.3 689.7L628.4 692.9L628.6 694.3L628.5 695.6L628.1 696.8L629.2 698.1L630.8 699.4L630.1 700.9L628.1 700.4L625.8 699.5L623.8 699.4L618.8 697.7L615.4 696.4L614.4 694.2L613.0 693.1L609.6 692.2L608.3 691.5L602.9 691.1L600.6 691.0L598.9 691.3L596.4 693.2L595.4 693.8L593.9 693.8L592.6 693.5L591.3 692.5L589.2 692.0L587.7 692.2L585.6 691.9L583.4 692.6L582.1 693.3L580.8 693.8L579.7 694.9L578.8 697.0L576.2 696.1L574.0 696.8L573.4 695.7L573.8 693.7L573.5 692.4L571.5 691.9L570.1 690.6L569.1 689.2L568.0 687.5L566.3 687.8L564.7 688.7L561.9 691.8L558.5 691.9L558.3 690.6L557.9 689.4L556.0 689.1L555.5 686.6L551.5 683.1L551.1 681.6L550.9 680.1L550.1 679.5L546.9 678.9L545.4 678.9L544.3 678.0L542.3 677.3L541.4 676.4L540.2 677.2L538.1 677.8L536.6 677.0L535.7 675.8L534.5 674.7L532.9 673.7L535.0 672.4L535.5 671.5L535.2 669.8L534.0 670.2L532.2 670.7L530.4 670.9L524.7 667.8L521.5 666.9L519.6 666.6L520.2 668.7L521.7 670.8L519.9 672.2L517.7 673.3L516.7 674.3L515.1 674.6L512.3 671.1L509.7 668.7L508.6 668.0L507.5 667.5L507.7 666.0L508.4 665.3L509.8 664.8L510.5 663.8L510.9 662.7L509.9 661.8L508.4 661.0L504.4 661.6L503.3 662.1L502.2 660.6L499.8 659.7L498.2 658.9L496.5 658.7L493.2 657.5L491.2 657.1L490.4 656.2L489.7 655.3L489.4 653.4L486.9 652.6L484.4 652.0L484.4 654.2L482.6 655.9L481.0 655.9L483.0 652.2L483.9 650.0L484.9 646.1L483.7 642.9L483.3 641.5L479.4 639.2L479.7 636.6L478.6 634.8L477.5 632.9L477.1 631.4L478.5 629.5L478.8 628.2L479.4 626.3L479.9 625.3L479.0 624.3L479.1 621.8L478.6 620.7L477.4 620.0L476.6 619.0L476.2 617.9L476.5 616.0L477.5 613.5L475.5 610.5L470.6 606.9L468.3 604.4L468.5 603.0L469.5 601.7L471.4 600.5L472.8 598.5L473.6 596.0L473.6 593.8L471.5 586.6L471.1 584.8L470.9 582.6L475.0 583.5L476.8 584.4L476.2 582.6L476.4 581.3L476.3 579.5L472.4 578.5L469.9 578.2L469.6 576.9L473.1 576.8L479.2 574.3L489.9 571.0L501.3 567.9L504.0 567.6L506.7 567.0L507.6 565.8L508.6 565.0L510.2 563.0L513.6 559.8L519.7 558.7L521.9 557.2L526.7 555.0L537.5 552.7L542.1 552.1L546.5 552.1L550.4 554.0L554.6 556.3L555.4 557.7L553.1 556.8L549.8 554.7L551.4 560.9L552.9 563.2L556.0 564.8L558.6 565.4L566.7 564.4L569.5 563.1L570.4 562.4L576.3 563.1L581.6 563.4L590.1 563.8L599.0 564.2L608.2 564.6L618.1 565.1L628.6 565.3L630.4 564.1L631.7 564.2L633.2 564.9L634.2 565.9L635.3 566.7L636.8 567.2L638.9 568.3L640.5 569.4L642.1 570.9L642.6 572.6L642.6 574.6L642.7 576.4L644.8 585.4L648.3 594.1L649.6 598.3L650.2 600.5L650.6 603.7L650.7 606.0L650.4 609.0L649.4 610.0L642.6 612.9L641.3 613.8L639.3 616.1L637.4 618.4L636.9 619.7L639.7 621.8L642.2 622.8L643.0 623.5L644.8 624.5L645.4 625.3L645.8 627.8L645.0 630.2L645.3 632.0L644.5 633.2L643.8 634.5L643.7 636.8L644.9 639.4Z" data-land="polen" tabindex="0" role="button" aria-label="Polen"></path><path d="M382.5 736.3L379.2 734.6L376.1 732.9L370.5 733.2L369.6 732.1L368.2 732.2L365.6 730.7L363.6 730.6L362.2 731.5L361.6 732.5L362.5 733.3L364.4 733.2L363.0 734.2L361.8 734.8L360.2 734.4L357.8 734.4L355.8 735.1L352.7 735.4L348.5 735.2L346.9 734.7L345.3 732.8L345.5 730.5L346.5 727.4L346.8 725.1L346.3 723.6L346.9 721.5L348.6 718.6L349.7 715.5L350.3 712.2L351.1 710.1L352.7 708.6L356.4 704.4L356.6 702.0L354.1 701.1L350.3 700.4L346.8 699.9L345.2 699.3L343.9 697.7L341.3 698.3L339.2 698.7L337.6 698.3L336.1 698.7L335.5 697.1L333.4 696.4L332.1 697.2L330.5 697.5L328.1 694.4L327.4 693.1L326.8 691.9L325.4 690.7L323.9 690.4L323.3 689.0L323.9 686.9L324.4 685.8L325.1 684.9L326.0 683.2L325.0 681.9L322.9 681.1L321.6 680.3L320.6 679.2L319.4 677.8L318.9 676.3L318.8 674.8L320.1 671.4L323.6 669.4L323.2 667.3L322.3 665.2L320.6 664.9L320.0 663.7L321.2 662.4L319.7 661.4L319.0 660.4L316.9 659.1L317.7 654.8L316.9 653.6L316.0 653.1L314.9 652.8L314.2 651.6L315.7 651.4L319.2 648.7L318.4 647.9L319.9 643.5L320.4 642.1L320.4 640.1L319.5 638.5L318.5 637.3L317.8 635.8L315.9 633.2L317.0 631.3L318.5 630.8L319.9 630.1L322.4 630.9L323.4 631.6L324.7 630.7L326.5 630.8L330.6 629.4L331.7 627.9L330.2 626.2L330.8 624.6L332.8 623.6L335.0 621.8L335.8 620.3L336.1 618.6L335.5 616.3L334.0 615.8L332.3 615.7L330.8 615.2L329.9 614.3L330.1 613.0L330.1 611.2L335.7 610.8L336.4 607.9L337.6 604.2L338.8 602.1L339.0 596.3L339.1 593.8L338.3 592.6L336.4 591.4L336.8 588.7L337.5 586.6L339.3 584.0L340.8 583.3L347.2 582.8L354.3 583.0L357.2 586.9L356.1 588.9L357.8 589.9L359.3 587.8L359.7 585.8L362.5 586.7L363.3 587.7L363.3 590.9L364.1 586.6L363.5 583.5L363.9 580.6L364.8 579.1L365.6 578.1L370.8 579.2L376.6 578.6L378.7 579.7L383.6 585.4L385.3 586.3L387.3 586.6L384.5 585.4L378.5 578.5L376.8 577.7L374.0 577.4L372.3 576.7L371.2 575.7L371.0 567.7L370.0 566.7L368.6 566.3L366.1 566.8L365.8 565.2L366.2 564.1L369.6 563.2L371.8 562.2L371.9 560.2L370.5 558.7L368.8 556.0L366.8 553.3L366.6 550.3L370.1 550.4L376.2 551.9L377.5 552.9L379.1 552.9L382.0 552.0L384.2 551.6L385.1 552.2L386.2 552.4L389.4 553.6L390.5 554.8L391.8 556.6L391.9 559.1L390.3 560.9L388.9 562.0L394.0 561.6L394.5 562.6L395.3 563.7L398.1 563.0L405.0 566.3L409.2 564.6L411.2 567.2L410.2 569.9L406.5 572.7L407.3 574.5L408.5 574.9L411.9 574.5L417.4 576.2L418.6 575.7L423.1 571.7L424.8 570.9L430.7 570.2L431.8 568.7L434.2 567.1L435.7 565.4L439.4 562.2L443.2 562.8L445.4 563.4L447.8 563.7L450.0 567.2L455.6 571.0L460.8 570.6L462.6 574.2L463.4 578.7L465.0 580.1L466.4 581.0L470.6 581.9L471.1 584.8L471.5 586.6L473.6 593.8L473.6 595.5L472.8 598.5L471.4 600.5L469.5 601.7L468.5 603.0L468.3 604.4L470.6 606.9L475.5 610.5L477.5 613.5L476.5 616.0L476.2 617.9L476.6 619.0L477.4 620.0L478.6 620.7L479.1 621.8L478.8 623.3L479.9 625.0L479.4 626.3L478.8 628.2L478.5 629.5L477.1 631.4L477.5 632.9L478.6 634.8L479.4 635.7L479.2 638.7L482.8 640.7L483.7 642.9L484.9 646.1L483.9 650.0L483.0 652.2L481.1 655.6L480.2 656.9L478.2 656.6L477.3 656.0L477.5 654.5L476.3 653.5L475.4 652.1L472.8 651.7L471.2 651.7L471.0 653.0L472.9 654.5L469.7 655.9L467.7 656.8L465.9 657.4L464.0 658.4L460.3 659.5L457.6 659.8L456.1 661.9L454.7 662.1L453.0 662.7L451.7 662.9L450.6 664.6L447.6 665.1L446.7 666.9L444.8 666.8L442.9 666.5L441.8 667.1L440.5 667.4L438.9 667.5L437.1 668.6L435.3 670.4L434.3 672.1L432.9 671.1L431.9 670.1L430.5 669.5L431.0 671.9L431.9 672.8L432.5 674.8L433.8 676.1L435.8 677.2L437.2 678.2L438.2 679.7L437.4 681.3L435.9 683.5L437.2 685.0L438.0 685.9L439.0 687.5L440.4 690.3L441.3 691.4L442.6 692.6L443.8 693.5L445.7 693.4L447.7 695.1L449.9 697.6L451.5 698.7L452.7 699.1L453.6 699.9L454.4 701.2L455.5 702.5L457.5 702.4L460.0 704.4L461.6 705.8L462.5 707.0L462.1 708.9L462.2 710.4L460.8 712.3L456.3 711.4L454.9 715.9L454.3 716.6L453.3 717.3L451.3 718.0L449.9 718.3L448.8 718.7L445.4 720.4L443.8 721.4L442.8 722.6L444.5 725.5L446.4 727.7L446.4 729.7L445.6 731.1L447.0 732.0L448.3 733.3L448.2 735.0L447.9 736.7L446.7 737.4L445.0 736.7L443.7 735.9L443.2 734.8L441.4 732.9L439.7 733.2L438.4 733.7L436.8 733.0L435.4 732.5L433.6 732.1L432.5 731.8L432.4 733.4L423.4 734.9L420.7 735.7L418.8 736.7L417.3 737.2L415.6 738.6L413.9 738.9L412.5 739.0L410.8 739.4L409.1 738.6L408.0 737.6L407.6 736.4L405.2 736.3L403.6 735.8L400.4 735.9L398.9 738.8L398.2 740.0L397.2 741.2L395.8 741.9L394.8 741.1L394.3 739.8L392.6 739.4L392.5 738.1L390.8 736.7L388.4 735.7L386.7 735.1L384.9 736.3L383.0 736.1ZM460.5 564.5L461.0 566.3L460.5 567.2L458.4 565.7L456.3 565.7L455.0 568.1L450.8 566.0L450.3 564.9L450.7 561.0L451.6 559.0L451.7 557.5L453.5 555.9L455.2 555.9L455.7 557.2L456.4 558.1L459.1 559.2L459.8 560.3L458.5 561.6L458.5 563.3L460.5 564.5ZM469.8 576.1L469.9 578.2L466.8 578.4L464.5 578.0L464.1 576.4L464.4 574.8L463.5 573.8L462.7 573.2L462.7 571.3L466.6 573.8L469.8 576.1ZM415.3 563.5L412.4 563.6L411.3 562.5L410.8 560.9L414.4 561.2L415.2 563.0ZM359.8 553.5L359.6 550.2L361.6 546.0L361.4 548.0L361.0 549.6L365.8 550.6L360.6 551.8L359.8 553.5ZM365.0 555.5L362.5 556.1L361.6 555.5L362.8 554.3L364.8 554.5Z" data-land="deutschland" tabindex="0" role="button" aria-label="Deutschland"></path><path d="M655.2 199.4L653.2 192.3L652.2 189.6L650.5 186.1L647.6 184.5L647.1 183.5L646.7 182.1L646.6 180.0L646.2 177.0L646.3 174.6L646.7 173.1L648.0 172.1L649.8 169.3L650.1 167.3L650.3 164.1L651.1 161.4L652.1 160.0L651.2 157.3L649.8 155.1L647.8 152.3L646.3 149.6L645.6 147.2L645.2 144.9L645.3 142.9L645.9 141.5L647.8 139.8L647.3 135.2L646.0 134.5L643.6 134.1L642.1 133.7L642.3 131.3L643.0 129.5L643.6 128.3L643.0 123.9L642.7 119.8L643.0 116.5L645.4 114.0L642.5 110.5L640.3 107.5L639.6 105.7L637.0 105.5L635.5 100.4L633.2 97.8L630.9 95.7L629.6 94.7L621.7 91.5L618.6 90.9L615.0 89.1L612.2 86.8L609.9 85.3L607.8 83.5L605.0 81.8L604.2 80.3L601.2 77.6L599.8 75.8L594.8 72.4L594.7 71.0L594.4 69.2L589.3 66.7L590.3 65.2L594.3 65.1L597.6 66.4L598.7 64.7L597.3 60.0L597.6 58.8L599.0 57.3L601.3 56.2L605.0 56.0L607.4 56.2L611.6 61.5L614.8 66.5L616.5 68.6L620.6 74.6L622.1 78.0L622.7 80.5L624.3 80.5L630.1 81.6L635.0 82.5L636.3 83.9L639.7 83.6L642.3 82.3L646.8 80.8L648.0 78.8L649.6 76.8L652.2 77.1L655.1 78.7L658.5 80.9L661.4 81.9L665.4 83.4L667.2 85.4L669.8 86.0L672.5 84.0L674.1 78.5L675.6 76.1L677.6 74.3L679.9 73.5L681.6 73.2L683.0 71.8L684.9 68.7L685.2 64.9L684.9 58.0L685.2 55.8L686.8 52.0L688.8 42.1L689.8 39.2L690.9 37.4L692.5 36.3L695.3 33.3L699.3 27.2L700.4 26.7L703.3 26.4L707.0 26.6L710.2 27.7L712.0 27.0L714.7 25.1L719.2 21.4L722.1 20.3L724.8 20.5L727.7 24.6L731.8 29.2L734.5 31.4L741.7 35.6L748.1 38.3L751.7 47.3L749.9 50.8L749.0 52.0L745.9 55.5L742.6 60.5L742.3 63.0L743.4 65.6L744.8 67.3L743.6 67.8L739.7 70.0L737.4 71.4L734.5 72.5L735.3 73.9L740.0 74.2L741.2 75.3L740.8 78.3L735.8 88.4L735.6 90.5L737.3 96.4L739.6 103.2L746.6 106.3L751.9 108.6L755.2 114.2L760.8 121.5L763.7 124.2L763.0 130.1L759.4 135.1L756.1 139.2L752.7 144.2L750.0 148.5L747.1 153.6L746.7 155.2L746.7 156.7L747.2 158.5L750.9 164.6L752.4 167.7L754.1 171.1L755.6 174.7L756.5 178.0L758.0 181.1L758.9 182.8L760.4 185.0L762.3 188.4L762.9 191.0L765.7 200.1L766.0 202.4L765.9 204.1L764.6 204.6L761.9 204.8L758.9 205.9L760.7 208.4L759.0 212.1L758.8 217.2L757.0 219.9L757.2 221.5L760.6 222.2L760.9 224.4L760.6 225.8L758.9 226.9L757.1 228.4L756.7 229.8L757.3 233.2L758.5 235.6L760.1 237.1L765.4 238.6L766.1 239.8L766.4 241.4L766.3 243.0L763.8 246.2L764.9 250.4L766.1 253.2L771.4 256.3L773.2 257.9L773.7 259.2L773.9 261.4L773.9 263.7L773.5 265.7L771.8 268.3L768.0 273.5L764.2 275.5L765.1 277.6L771.9 284.1L776.3 287.2L782.3 291.3L786.1 294.5L787.3 296.8L789.0 299.4L790.9 301.5L792.2 303.3L792.7 304.5L790.9 309.5L789.9 312.4L788.1 316.6L786.2 319.6L781.5 324.9L774.6 331.6L773.0 333.6L769.8 337.0L764.3 344.0L762.8 345.5L758.3 351.0L756.3 352.7L754.6 354.3L750.1 359.5L745.3 363.3L740.6 366.9L739.2 368.8L737.4 370.1L735.3 371.5L734.4 372.2L729.7 377.1L723.0 383.8L720.7 385.0L718.0 385.3L716.8 386.1L712.7 383.7L709.6 384.2L707.3 385.9L703.0 386.4L700.9 387.0L699.5 387.7L699.2 385.9L699.8 383.5L700.8 381.9L700.2 381.0L698.8 383.3L698.1 386.0L696.6 387.4L693.4 387.9L690.2 385.8L688.7 385.8L689.7 387.4L690.3 389.1L688.5 389.9L686.7 390.9L685.0 392.4L683.1 390.3L681.1 391.3L679.4 392.6L675.9 393.0L673.8 394.7L670.1 395.9L668.1 395.8L663.5 397.2L661.9 399.4L660.6 400.2L658.7 399.5L652.7 400.5L647.1 401.9L644.7 401.8L642.3 401.3L639.7 403.2L637.0 405.7L634.0 406.6L633.8 405.0L635.8 403.6L637.1 401.7L637.3 400.1L636.4 399.5L635.1 399.3L633.5 397.7L632.0 394.2L630.7 394.9L630.3 397.6L629.0 399.0L628.0 399.6L623.6 399.9L623.2 398.6L623.8 396.2L623.8 394.5L625.5 394.3L626.0 392.7L624.6 392.5L625.7 389.5L624.7 388.9L619.8 388.1L613.8 385.0L612.3 384.8L611.4 381.9L609.9 382.3L607.8 384.0L606.2 382.7L604.5 381.9L604.0 380.6L604.0 378.7L603.9 376.4L603.4 373.7L603.1 369.9L603.4 366.9L604.8 364.7L605.3 363.3L605.9 359.7L606.1 355.4L605.7 354.0L606.9 353.0L606.2 351.7L605.6 350.8L607.4 350.2L606.6 347.0L605.1 342.1L603.5 338.7L601.1 336.2L602.0 332.1L603.0 328.3L602.8 326.5L602.4 324.3L599.5 321.9L599.0 318.4L598.3 314.7L598.6 312.5L599.0 310.7L600.0 309.0L604.9 303.5L605.2 300.6L608.5 300.4L607.0 297.8L606.6 296.3L606.5 294.6L611.3 293.5L613.1 294.4L617.2 293.2L621.0 290.9L620.3 288.6L619.5 286.4L621.4 286.3L620.8 285.2L622.4 284.6L624.8 281.4L624.9 279.0L629.1 277.8L633.9 272.8L636.1 271.3L638.3 270.2L642.8 265.2L644.8 265.0L645.8 261.6L649.7 257.1L650.9 256.6L652.7 252.5L657.5 247.8L660.5 241.7L662.2 239.6L662.7 237.3L664.5 237.1L666.2 235.4L669.8 234.2L673.4 234.5L674.9 235.3L676.3 235.1L676.1 233.0L675.2 231.7L676.0 230.5L677.9 229.5L677.7 227.4L677.2 226.2L675.7 224.5L676.5 220.8L676.6 216.6L677.4 211.8L675.4 209.3L667.9 205.0L666.5 205.1L664.9 204.6L663.1 201.3L663.9 198.4L663.3 197.4L662.2 198.8L659.8 200.4L656.7 199.1L655.2 199.4ZM614.9 390.2L613.5 390.3L611.6 388.7L612.1 387.8L611.6 386.5L613.3 386.9L614.1 388.1L614.6 389.6ZM600.4 293.3L601.7 293.8L603.2 292.6L604.2 293.2L604.1 294.9L602.3 295.5L601.1 296.5L599.1 294.8L597.9 292.1L600.8 292.1L600.4 293.3ZM618.3 389.1L620.6 389.8L622.7 391.2L620.8 392.3L620.7 393.6L621.5 394.4L621.7 395.6L619.8 395.6L618.9 394.6L618.5 393.3L617.6 392.5L616.4 391.8L617.0 390.9L617.3 389.6ZM604.8 384.0L604.5 385.5L603.2 385.3L602.0 385.6L600.9 384.1L600.4 381.6L601.4 380.5L602.0 381.9L604.8 384.0ZM611.9 396.4L610.0 397.5L609.5 395.4L610.6 394.6L612.5 394.5L611.9 396.4ZM608.1 397.4L606.4 397.7L605.4 396.8L606.9 395.4L608.4 396.4L608.1 397.4ZM668.1 230.2L665.3 231.4L663.1 230.7L663.0 228.3L664.4 227.1L666.9 226.6L670.4 227.8L668.9 228.9L668.1 230.2Z" data-land="finnland" tabindex="0" role="button" aria-label="Finnland"></path><path d="M565.6 796.5L565.3 798.7L564.5 800.5L563.2 802.5L561.9 804.3L561.5 806.8L561.5 808.6L563.4 809.7L565.4 810.9L567.1 812.5L569.3 814.3L570.0 815.6L567.5 816.4L565.5 816.2L564.1 816.3L565.9 819.3L568.2 822.4L568.3 823.7L567.5 825.4L565.8 824.8L563.8 825.0L562.7 826.1L561.2 826.2L559.6 826.1L558.2 826.2L558.6 828.0L559.8 829.9L559.6 831.3L557.9 830.3L556.3 830.1L554.4 831.5L553.0 832.6L552.2 834.3L552.1 837.0L549.6 837.3L548.7 838.3L548.9 841.0L549.1 842.4L550.6 844.6L549.4 846.6L546.9 846.5L542.8 844.2L541.3 843.2L538.9 841.7L537.5 840.9L536.8 839.7L535.6 839.4L534.3 839.8L532.7 838.9L533.8 838.5L533.5 836.7L529.3 833.3L527.3 831.0L526.9 828.0L523.4 826.4L520.0 823.6L516.5 820.7L514.2 817.8L512.0 815.8L510.2 814.6L508.8 813.2L507.2 811.2L506.3 808.2L505.6 805.5L505.1 804.4L500.9 800.9L498.3 799.0L498.3 797.0L498.7 793.6L499.2 789.8L501.1 789.0L502.5 789.1L503.7 789.6L506.1 792.2L507.5 793.2L508.6 793.6L510.0 792.5L511.6 790.2L513.1 789.0L517.9 789.4L520.3 787.6L524.2 790.0L525.7 790.3L527.9 790.2L530.6 790.8L532.0 791.1L534.0 790.2L537.0 792.1L539.5 791.3L540.4 790.7L543.0 791.2L544.5 790.9L547.1 791.1L548.4 791.5L549.6 791.9L552.8 792.1L554.4 793.2L555.0 794.3L555.1 795.7L556.0 796.4L558.0 796.8L559.9 796.7L561.5 796.0L563.5 795.7L564.9 796.1Z" data-land="bosnien" tabindex="0" role="button" aria-label="Bosnien und Herzegowina"></path><path d="M382.6 742.2L384.1 739.4L384.4 737.6L383.1 736.6L384.9 736.3L386.1 735.7L388.4 735.7L390.8 736.7L392.0 737.5L392.7 738.5L393.2 739.7L395.1 740.1L394.8 742.0L397.2 741.2L398.2 740.0L398.9 738.8L399.4 735.9L403.6 735.8L405.2 736.3L407.6 736.4L408.0 737.6L409.1 738.6L410.8 739.4L412.5 739.0L413.6 738.6L415.6 738.6L417.0 737.8L418.8 736.7L420.7 735.7L423.4 734.9L432.1 734.1L432.3 732.0L433.6 732.1L435.4 732.5L436.8 733.0L437.6 733.7L439.7 733.2L441.4 732.9L443.0 733.6L443.2 735.4L445.0 736.7L446.7 737.4L447.9 736.7L448.2 735.0L448.3 733.3L447.9 732.2L445.9 731.9L446.4 729.7L446.4 727.7L444.5 725.5L442.8 723.4L443.8 721.4L445.4 720.4L448.8 718.7L449.9 718.3L451.3 718.0L453.3 717.3L454.3 716.6L454.9 715.9L455.8 711.8L459.9 712.8L461.9 711.3L462.1 708.9L462.2 707.4L464.5 707.9L465.7 708.8L466.8 710.9L469.4 711.5L472.8 711.5L473.9 710.6L476.2 710.6L478.8 711.0L479.1 709.2L480.6 707.4L483.1 706.9L483.6 705.5L484.0 701.8L485.8 701.5L487.1 702.1L488.3 702.6L490.3 702.0L492.1 702.4L495.7 704.1L497.6 704.7L499.9 704.6L504.2 707.3L507.3 707.6L510.0 707.6L510.9 706.9L512.1 706.2L514.4 706.6L516.5 707.8L518.7 708.2L520.5 710.5L520.8 712.1L520.0 713.3L519.3 714.7L521.3 720.5L523.1 723.2L524.6 725.0L523.5 726.0L523.3 727.5L522.4 729.0L522.7 730.7L523.1 732.0L521.3 732.3L519.3 732.3L517.8 732.7L515.2 731.3L513.5 731.1L511.9 732.3L511.2 733.2L515.1 734.3L515.8 736.0L515.0 737.4L513.9 738.6L512.8 739.1L511.4 739.2L511.8 742.1L511.0 743.3L511.4 745.1L512.4 745.6L512.1 747.1L511.6 748.3L509.4 748.4L507.9 749.1L504.9 751.6L503.9 752.0L502.8 753.0L502.8 755.2L498.8 755.1L496.3 755.4L494.7 756.4L492.7 757.0L488.6 756.7L484.6 757.1L482.6 757.5L481.6 758.1L480.0 760.0L478.6 760.8L477.0 761.4L476.2 762.3L474.6 761.9L470.9 761.3L467.8 760.8L466.3 760.4L464.6 760.0L462.8 759.7L461.1 759.6L456.4 758.7L453.8 758.6L450.4 758.3L443.6 757.1L441.7 756.6L439.8 756.4L437.6 756.0L435.9 755.3L434.8 754.0L433.6 752.3L431.5 750.0L431.1 748.8L431.7 747.8L432.4 747.1L428.1 747.6L424.5 748.8L423.0 748.8L421.7 748.6L419.8 748.5L418.1 748.9L414.6 749.0L412.5 749.9L411.2 751.7L410.5 753.2L408.6 753.8L406.8 753.7L405.5 753.2L404.2 752.0L402.2 751.8L400.3 751.8L399.8 750.8L399.1 749.3L397.9 748.8L394.7 751.6L391.3 751.1L389.1 749.9L388.5 748.3L386.6 747.6L384.3 747.1L383.9 745.4L383.1 744.2L382.7 742.6Z" data-land="oesterreich" tabindex="0" role="button" aria-label="Österreich"></path></g></svg>
